<svg width="36" height="36" viewBox="0 0 36 36" fill="none" xmlns="http://www.w3.org/2000/svg">
<path d="M18 36C27.9411 36 36 27.9411 36 18C36 8.05887 27.9411 0 18 0C8.05887 0 0 8.05887 0 18C0 27.9411 8.05887 36 18 36Z" fill="#FFEB3B"/>
<path d="M15.6211 16.4985L14.9727 18.3271H16.2675L15.6211 16.4985ZM15.6211 16.4985L14.9727 18.3271H16.2675L15.6211 16.4985ZM18 8.71143C11.788 8.71143 6.75 12.6551 6.75 17.5232C6.75 20.6691 8.85477 23.4305 12.0232 24.9871C10.4502 30.3769 9.52568 30.7287 16.0016 26.1939C16.6636 26.2872 17.3314 26.3336 18 26.333C24.212 26.333 29.25 22.3873 29.25 17.5212C29.25 12.6551 24.212 8.71143 18 8.71143V8.71143ZM11.7798 20.5976C10.6568 20.5976 11.3195 19.0451 11.1314 16.1528C10.7223 16.0832 9.48068 16.431 9.48068 15.5207C9.48176 15.3529 9.54933 15.1924 9.66857 15.0743C9.78781 14.9562 9.949 14.8902 10.1168 14.8907C12.4773 15.0605 14.0768 14.451 14.0768 15.5207C14.0768 16.4473 12.8823 16.0751 12.4282 16.1528C12.24 19.0348 12.9007 20.5976 11.7798 20.5976V20.5976ZM17.8834 20.4994C16.875 20.9576 16.8505 19.9246 16.6091 19.4767H14.6311C14.3877 19.9348 14.3673 20.9657 13.3568 20.4994C12.598 20.1517 13.8334 18.3864 14.7559 15.5248C14.8149 15.3421 14.9304 15.1828 15.0857 15.0697C15.241 14.9567 15.4281 14.8958 15.6201 14.8958C15.8122 14.8958 15.9993 14.9567 16.1545 15.0697C16.3098 15.1828 16.4253 15.3421 16.4843 15.5248C17.4252 18.4417 18.6464 20.1517 17.8834 20.4994V20.4994ZM19.082 20.4994C17.9959 20.4994 18.6566 19.0328 18.4684 15.5289C18.4684 14.676 19.7939 14.678 19.7939 15.5289V19.3212C20.4198 19.4051 21.7943 19.0123 21.7943 19.9123C21.7861 20.8635 20.3093 20.3828 19.082 20.5035V20.4994ZM25.0834 20.3132L23.5616 18.3087L23.3366 18.5337V19.943C23.3366 20.0282 23.3197 20.1126 23.287 20.1913C23.2543 20.27 23.2063 20.3414 23.1458 20.4015C23.0854 20.4616 23.0136 20.5091 22.9347 20.5414C22.8558 20.5736 22.7714 20.5899 22.6861 20.5894C21.5591 20.5894 22.2341 18.9653 22.0377 15.533C22.0388 15.3618 22.1076 15.1979 22.2291 15.0772C22.3506 14.9564 22.5149 14.8887 22.6861 14.8887C23.6659 14.8887 23.2425 16.2755 23.3345 16.9198C25.1755 15.1628 25.1284 14.9767 25.5068 14.9767C26.0284 14.9767 26.3475 15.6251 25.9998 15.9687L24.5209 17.4373L26.1184 19.5401C26.64 20.2212 25.5989 21.0005 25.0834 20.3173V20.3132ZM14.9727 18.3271H16.2675L15.6211 16.4985L14.9727 18.3271ZM15.6211 16.4985L14.9727 18.3271H16.2675L15.6211 16.4985ZM15.6211 16.4985L14.9727 18.3271H16.2675L15.6211 16.4985Z" fill="#3E2723"/>
</svg>
