<svg width="36" height="36" viewBox="0 0 36 36" fill="none" xmlns="http://www.w3.org/2000/svg">
<path d="M0 18C0 8.05887 8.05887 0 18 0V0C27.9411 0 36 8.05887 36 18V18C36 27.9411 27.9411 36 18 36V36C8.05887 36 0 27.9411 0 18V18Z" fill="#EC609C"/>
<path fill-rule="evenodd" clip-rule="evenodd" d="M19.4579 12.1681C20.6658 10.9602 22.6241 10.9602 23.832 12.1681C25.0399 13.376 25.0399 15.3343 23.832 16.5422L22.374 18.0003C21.9714 18.4029 21.9714 19.0557 22.374 19.4583C22.7766 19.8609 23.4294 19.8609 23.832 19.4583L25.2901 18.0003C27.3032 15.9871 27.3032 12.7232 25.2901 10.71C23.2769 8.69691 20.013 8.69691 17.9999 10.71L16.5418 12.1681C16.1392 12.5707 16.1392 13.2235 16.5418 13.6261C16.9444 14.0288 17.5972 14.0288 17.9999 13.6261L19.4579 12.1681ZM21.6449 14.3554C22.0476 14.7581 22.0476 15.4109 21.6449 15.8135L15.8128 21.6457C15.4101 22.0483 14.7574 22.0483 14.3547 21.6457C13.9521 21.243 13.9521 20.5902 14.3547 20.1876L20.1869 14.3554C20.5895 13.9528 21.2423 13.9528 21.6449 14.3554ZM13.6259 16.5423C14.0286 16.9449 14.0286 17.5977 13.6259 18.0003L12.1679 19.4584C10.96 20.6662 10.96 22.6246 12.1679 23.8325C13.3758 25.0404 15.3341 25.0404 16.542 23.8325L18.0001 22.3744C18.4027 21.9718 19.0555 21.9718 19.4581 22.3744C19.8607 22.7771 19.8607 23.4299 19.4581 23.8325L18.0001 25.2905C15.9869 27.3037 12.723 27.3037 10.7099 25.2905C8.69673 23.2774 8.69673 20.0134 10.7099 18.0003L12.1679 16.5423C12.5705 16.1396 13.2233 16.1396 13.6259 16.5423Z" fill="white"/>
</svg>
