<svg width="48" height="48" viewBox="0 0 48 48" fill="none" xmlns="http://www.w3.org/2000/svg">
<path d="M30.6855 15.9411L25.0165 3.65053C24.6164 2.78316 23.3836 2.78316 22.9835 3.65053L17.3145 15.9411C17.1514 16.2946 16.8164 16.538 16.4298 16.5838L2.98894 18.1775C2.04039 18.2899 1.65945 19.4623 2.36074 20.1109L12.2979 29.3005C12.5837 29.5648 12.7117 29.9586 12.6358 30.3405L9.99799 43.6159C9.81184 44.5528 10.8092 45.2774 11.6427 44.8109L23.4532 38.1998C23.793 38.0096 24.207 38.0096 24.5468 38.1998L36.3573 44.8109C37.1908 45.2774 38.1882 44.5528 38.002 43.6159L35.3642 30.3405C35.2883 29.9586 35.4163 29.5648 35.7021 29.3005L45.6393 20.1109C46.3405 19.4623 45.9596 18.2899 45.0111 18.1775L31.5702 16.5838C31.1836 16.538 30.8486 16.2946 30.6855 15.9411Z" fill="currentColor"/>
</svg>
