<svg width="48" height="48" viewBox="0 0 48 48" fill="none" xmlns="http://www.w3.org/2000/svg">
<path fill-rule="evenodd" clip-rule="evenodd" d="M21.2326 3.77114C22.3218 1.40963 25.6782 1.40962 26.7674 3.77114L31.6741 14.4089L43.3075 15.7882C45.89 16.0944 46.9272 19.2865 45.0179 21.0521L36.417 29.006L38.7001 40.4962C39.2069 43.047 36.4916 45.0197 34.2223 43.7495L24 38.0275L13.7777 43.7495C11.5084 45.0197 8.79306 43.047 9.29989 40.4962L11.583 29.006L2.98214 21.0522L4.3616 19.5605L2.98214 21.0521C1.07281 19.2865 2.10996 16.0944 4.6925 15.7882L16.3259 14.4089L21.2326 3.77114ZM24 7.47303L19.7776 16.6272C19.3336 17.5897 18.4215 18.2524 17.369 18.3772L7.35803 19.5641L14.7594 26.4087L13.4641 27.8094L14.7594 26.4087C15.5376 27.1283 15.886 28.2006 15.6794 29.2402L13.7147 39.1279L22.5114 34.2039C23.4363 33.6862 24.5637 33.6862 25.4886 34.2039L34.2853 39.1279L32.3206 29.2402C32.114 28.2006 32.4624 27.1283 33.2406 26.4087L40.642 19.5641L30.631 18.3772C29.5785 18.2524 28.6664 17.5897 28.2224 16.6272L30.0674 15.7762L28.2224 16.6272L24 7.47303Z" fill="currentColor"/>
</svg>
