<svg width="120" height="42" viewBox="0 0 120 42" fill="none" xmlns="http://www.w3.org/2000/svg">
<path d="M0 21C0 9.40202 9.40202 0 21 0H99C110.598 0 120 9.40202 120 21V21C120 32.598 110.598 42 99 42H21C9.40202 42 0 32.598 0 21V21Z" fill="white"/>
<path d="M27.0673 27.5H29.1416V16.3027H33.413V14.5625H22.7783V16.3027H27.0673V27.5ZM37.5179 27.5H39.6097V21.4531L44.3206 14.5625H41.9827L38.5902 19.6426L35.18 14.5625H32.7894L37.5179 21.5059V27.5ZM44.9802 27.5H47.0544V22.5605H50.2184C52.9079 22.5605 54.4548 21.084 54.4548 18.5527C54.4548 16.0391 52.9079 14.5625 50.2184 14.5625H44.9802V27.5ZM47.0544 20.8906V16.2324H49.8845C51.5368 16.2324 52.4157 17.0234 52.4157 18.5527C52.4157 20.0996 51.5368 20.8906 49.8845 20.8906H47.0544ZM56.0108 27.5H64.3955V25.8301H58.0323V21.7695H63.9912V20.0996H58.0323V16.2324H64.3955V14.5625H56.0108V27.5Z" fill="#FED263"/>
<path d="M83.2138 21C73.85 14.5643 79.0643 9.34997 85.5 18.7138C91.9357 9.34997 97.1579 14.5721 87.794 21.0078C97.1579 27.4435 91.9357 32.6657 85.5 23.3018C79.0643 32.6657 73.8421 27.4435 83.206 21.0078L83.2138 21Z" fill="#FED263"/>
<path d="M83.8793 19.3793C81.8124 8.20689 89.1876 8.20689 87.1207 19.3793C98.2931 17.3124 98.2931 24.6876 87.1207 22.6207C89.1876 33.7931 81.8124 33.7931 83.8793 22.6207C72.7069 24.6876 72.7069 17.3124 83.8793 19.3793Z" fill="#FED263"/>
<path d="M21 1H99V-1H21V1ZM99 41H21V43H99V41ZM21 41C9.95431 41 1 32.0457 1 21H-1C-1 33.1503 8.84974 43 21 43V41ZM119 21C119 32.0457 110.046 41 99 41V43C111.15 43 121 33.1503 121 21H119ZM99 1C110.046 1 119 9.95431 119 21H121C121 8.84974 111.15 -1 99 -1V1ZM21 -1C8.84974 -1 -1 8.84974 -1 21H1C1 9.95431 9.9543 1 21 1V-1Z" fill="#FED263"/>
</svg>
