<svg width="120" height="42" viewBox="0 0 120 42" fill="none" xmlns="http://www.w3.org/2000/svg">
<path d="M0 21C0 9.40202 9.40202 0 21 0H99C110.598 0 120 9.40202 120 21V21C120 32.598 110.598 42 99 42H21C9.40202 42 0 32.598 0 21V21Z" fill="white"/>
<path d="M27.0673 27.5H29.1416V16.3027H33.413V14.5625H22.7783V16.3027H27.0673V27.5ZM37.5179 27.5H39.6097V21.4531L44.3206 14.5625H41.9827L38.5902 19.6426L35.18 14.5625H32.7894L37.5179 21.5059V27.5ZM44.9802 27.5H47.0544V22.5605H50.2184C52.9079 22.5605 54.4548 21.084 54.4548 18.5527C54.4548 16.0391 52.9079 14.5625 50.2184 14.5625H44.9802V27.5ZM47.0544 20.8906V16.2324H49.8845C51.5368 16.2324 52.4157 17.0234 52.4157 18.5527C52.4157 20.0996 51.5368 20.8906 49.8845 20.8906H47.0544ZM56.0108 27.5H64.3955V25.8301H58.0323V21.7695H63.9912V20.0996H58.0323V16.2324H64.3955V14.5625H56.0108V27.5Z" fill="#9262F7"/>
<g clip-path="url(#clip0_506_1480)">
<path d="M83.8701 12.0474C85.4209 13.5982 86.7257 18.1808 84.7037 20.2028C82.6817 22.2248 78.0992 20.9199 76.5484 19.3691C74.995 17.8183 75.3781 14.9212 77.4002 12.8992C79.4222 10.8772 82.3192 10.494 83.8701 12.0474Z" fill="#9262F7"/>
<path d="M87.2228 30.0436C85.672 28.4927 84.3671 23.9102 86.3892 21.8882C88.4112 19.8662 92.9937 21.1711 94.5445 22.7219C96.0953 24.2727 95.7147 27.1698 93.6927 29.1918C91.6707 31.2138 88.7736 31.5944 87.2228 30.0436Z" fill="#9262F7"/>
<path d="M94.5393 19.2371C93.0222 20.7542 88.507 21.9918 86.4849 19.9698C84.4629 17.9478 85.7005 13.4326 87.2176 11.9154C88.7348 10.3982 91.6034 10.8099 93.6254 12.8319C95.6474 14.8539 96.0565 17.7225 94.5419 19.2397L94.5393 19.2371Z" fill="#9262F7"/>
<path d="M76.4163 22.7167C77.9335 21.1995 82.4487 19.962 84.4707 21.984C86.4927 24.006 85.2552 28.5212 83.738 30.0384C82.2209 31.5555 79.3523 31.1439 77.3303 29.1219C75.3082 27.0999 74.8992 24.2313 76.4163 22.7167Z" fill="#9262F7"/>
<path d="M85.3406 24.2209C87.0564 24.2209 88.4474 22.8299 88.4474 21.1141C88.4474 19.3983 87.0564 18.0073 85.3406 18.0073C83.6248 18.0073 82.2338 19.3983 82.2338 21.1141C82.2338 22.8299 83.6248 24.2209 85.3406 24.2209Z" fill="#9262F7"/>
</g>
<path d="M21 1H99V-1H21V1ZM99 41H21V43H99V41ZM21 41C9.95431 41 1 32.0457 1 21H-1C-1 33.1503 8.84974 43 21 43V41ZM119 21C119 32.0457 110.046 41 99 41V43C111.15 43 121 33.1503 121 21H119ZM99 1C110.046 1 119 9.95431 119 21H121C121 8.84974 111.15 -1 99 -1V1ZM21 -1C8.84974 -1 -1 8.84974 -1 21H1C1 9.95431 9.9543 1 21 1V-1Z" fill="#9262F7"/>
<defs>
<clipPath id="clip0_506_1480">
<rect width="20" height="20" fill="white" transform="translate(75.5 11)"/>
</clipPath>
</defs>
</svg>
