<svg width="120" height="42" viewBox="0 0 120 42" fill="none" xmlns="http://www.w3.org/2000/svg">
<path d="M0 21C0 9.40202 9.40202 0 21 0H99C110.598 0 120 9.40202 120 21V21C120 32.598 110.598 42 99 42H21C9.40202 42 0 32.598 0 21V21Z" fill="white"/>
<path d="M27.0673 27.5H29.1416V16.3027H33.413V14.5625H22.7783V16.3027H27.0673V27.5ZM37.5179 27.5H39.6097V21.4531L44.3206 14.5625H41.9827L38.5902 19.6426L35.18 14.5625H32.7894L37.5179 21.5059V27.5ZM44.9802 27.5H47.0544V22.5605H50.2184C52.9079 22.5605 54.4548 21.084 54.4548 18.5527C54.4548 16.0391 52.9079 14.5625 50.2184 14.5625H44.9802V27.5ZM47.0544 20.8906V16.2324H49.8845C51.5368 16.2324 52.4157 17.0234 52.4157 18.5527C52.4157 20.0996 51.5368 20.8906 49.8845 20.8906H47.0544ZM56.0108 27.5H64.3955V25.8301H58.0323V21.7695H63.9912V20.0996H58.0323V16.2324H64.3955V14.5625H56.0108V27.5Z" fill="#DB4A60"/>
<g clip-path="url(#clip0_506_1479)">
<path d="M85.4995 11L86.9062 15.7508L90.5003 12.3398L89.3424 17.1576L94.1602 15.9997L90.7492 19.5938L95.5 20.9995L90.7492 22.4062L94.1602 26.0003L89.3424 24.8424L90.5003 29.6602L86.9062 26.2492L85.4995 31L84.0938 26.2492L80.4997 29.6602L81.6576 24.8424L76.8398 26.0003L80.2508 22.4062L75.5 20.9995L80.2508 19.5938L76.8398 15.9997L81.6576 17.1576L80.4997 12.3398L84.0938 15.7508L85.4995 11Z" fill="#DB4A60"/>
</g>
<path d="M21 1H99V-1H21V1ZM99 41H21V43H99V41ZM21 41C9.95431 41 1 32.0457 1 21H-1C-1 33.1503 8.84974 43 21 43V41ZM119 21C119 32.0457 110.046 41 99 41V43C111.15 43 121 33.1503 121 21H119ZM99 1C110.046 1 119 9.95431 119 21H121C121 8.84974 111.15 -1 99 -1V1ZM21 -1C8.84974 -1 -1 8.84974 -1 21H1C1 9.95431 9.9543 1 21 1V-1Z" fill="#DB4A60"/>
<defs>
<clipPath id="clip0_506_1479">
<rect width="20" height="20" fill="white" transform="translate(75.5 11)"/>
</clipPath>
</defs>
</svg>
