<svg width="120" height="42" viewBox="0 0 120 42" fill="none" xmlns="http://www.w3.org/2000/svg">
<path d="M0 21C0 9.40202 9.40202 0 21 0H99C110.598 0 120 9.40202 120 21V21C120 32.598 110.598 42 99 42H21C9.40202 42 0 32.598 0 21V21Z" fill="white"/>
<path d="M29.0673 27.5H31.1416V16.3027H35.413V14.5625H24.7783V16.3027H29.0673V27.5ZM39.5179 27.5H41.6097V21.4531L46.3206 14.5625H43.9827L40.5902 19.6426L37.18 14.5625H34.7894L39.5179 21.5059V27.5ZM46.9802 27.5H49.0544V22.5605H52.2184C54.9079 22.5605 56.4548 21.084 56.4548 18.5527C56.4548 16.0391 54.9079 14.5625 52.2184 14.5625H46.9802V27.5ZM49.0544 20.8906V16.2324H51.8845C53.5368 16.2324 54.4157 17.0234 54.4157 18.5527C54.4157 20.0996 53.5368 20.8906 51.8845 20.8906H49.0544ZM58.0108 27.5H66.3955V25.8301H60.0323V21.7695H65.9912V20.0996H60.0323V16.2324H66.3955V14.5625H58.0108V27.5Z" fill="#5876FF"/>
<path d="M82.7527 21.0001C98.2376 28.0352 92.5345 33.7383 85.5008 18.2521C78.4656 33.7369 72.7625 28.0338 88.2474 21.0001C72.7625 13.965 78.4656 8.26184 85.5008 23.7467C92.5345 8.26184 98.2376 13.965 82.7527 21.0001Z" fill="#5876FF"/>
<path d="M83.5568 19.0573C89.5317 34.9813 81.4663 34.9813 87.4432 19.0573C71.5191 25.0321 71.5191 16.9667 87.4421 22.9425C81.4673 7.0185 89.5327 7.0185 83.5579 22.9425C99.4809 16.9667 99.4809 25.0321 83.5568 19.0573Z" fill="#5876FF"/>
<path d="M82.7527 21.0001C98.2376 28.0352 92.5345 33.7383 85.5008 18.2521C78.4656 33.7369 72.7625 28.0338 88.2474 21.0001C72.7625 13.965 78.4656 8.26184 85.5008 23.7467C92.5345 8.26184 98.2376 13.965 82.7527 21.0001Z" fill="#5876FF"/>
<path d="M21 1H99V-1H21V1ZM99 41H21V43H99V41ZM21 41C9.95431 41 1 32.0457 1 21H-1C-1 33.1503 8.84974 43 21 43V41ZM119 21C119 32.0457 110.046 41 99 41V43C111.15 43 121 33.1503 121 21H119ZM99 1C110.046 1 119 9.95431 119 21H121C121 8.84974 111.15 -1 99 -1V1ZM21 -1C8.84974 -1 -1 8.84974 -1 21H1C1 9.95431 9.9543 1 21 1V-1Z" fill="#5876FF"/>
</svg>
