<svg width="190" height="190" viewBox="0 0 190 190" fill="none" xmlns="http://www.w3.org/2000/svg">
<circle cx="95" cy="95" r="95" fill="#A1ADC0"/>
<path d="M75 108V114C75 115.655 76.3455 117 78 117H114C115.655 117 117 115.655 117 114V108C117 107.172 116.329 106.5 115.5 106.5C114.671 106.5 114 107.172 114 108V114H78V108C78 107.172 77.3295 106.5 76.5 106.5C75.6705 106.5 75 107.172 75 108Z" fill="white"/>
<path d="M107.56 88.0616C108.147 87.4751 108.147 86.5271 107.56 85.9406L97.062 75.4421C96.4755 74.8541 95.517 74.8616 94.938 75.4421L84.4395 85.9406C83.853 86.5271 83.853 87.4751 84.4395 88.0616C84.732 88.3541 85.116 88.5011 85.5 88.5011C85.884 88.5011 86.268 88.3541 86.5605 88.0616L94.5 80.1221V106.501C94.5 107.329 95.1705 108.001 96 108.001C96.8295 108.001 97.5 107.329 97.5 106.501V80.1221L105.439 88.0616C106.026 88.6481 106.974 88.6481 107.56 88.0616Z" fill="white"/>
</svg>
