<svg width="48" height="48" viewBox="0 0 48 48" fill="none" xmlns="http://www.w3.org/2000/svg">
<path fill-rule="evenodd" clip-rule="evenodd" d="M24 8.95101C20.9794 5.16884 16.3834 3.50683 12.1354 4.1267C9.44179 4.51976 6.87585 5.83447 4.9897 8.10501C3.09753 10.3828 2 13.4869 2 17.2718C2 24.9903 7.63268 31.6925 12.6364 36.1965C15.2082 38.5115 17.7699 40.384 19.6838 41.676C20.6429 42.3235 21.4447 42.8288 22.0108 43.1746C22.2941 43.3476 22.5187 43.4809 22.675 43.5724C22.7531 43.6181 22.8142 43.6534 22.857 43.6779L22.9074 43.7067L22.9221 43.715L22.9267 43.7176C22.9273 43.718 22.9295 43.7192 24 41.7778L22.9295 43.7192C23.5951 44.0936 24.4049 44.0936 25.0705 43.7192L24 41.7778C25.0705 43.7192 25.0698 43.7195 25.0705 43.7192L25.0779 43.715L25.0926 43.7067L25.143 43.6779C25.1858 43.6534 25.2469 43.6181 25.325 43.5724C25.4813 43.4809 25.7059 43.3476 25.9892 43.1746C26.5553 42.8288 27.3571 42.3235 28.3162 41.676C30.2301 40.384 32.7918 38.5115 35.3636 36.1965C40.3673 31.6925 46 24.9903 46 17.2718C46 13.4869 44.9025 10.3828 43.0103 8.10501C41.1242 5.83447 38.5582 4.51976 35.8646 4.1267C31.6166 3.50683 27.0206 5.16884 24 8.95101ZM24 39.1944C23.5092 38.8898 22.871 38.482 22.1287 37.9809C20.3301 36.7667 17.9418 35.019 15.5636 32.8783C10.6673 28.471 6.4 22.9203 6.4 17.2718C6.4 14.3732 7.22747 12.3255 8.3603 10.9618C9.49915 9.5909 11.0582 8.77448 12.7646 8.52549C16.197 8.02462 20.1739 9.83691 21.9752 14.1185C22.3204 14.9389 23.1175 15.4715 24 15.4715C24.8825 15.4715 25.6796 14.9389 26.0248 14.1185C27.8261 9.83691 31.803 8.02462 35.2354 8.52549C36.9418 8.77448 38.5008 9.5909 39.6397 10.9618C40.7725 12.3255 41.6 14.3732 41.6 17.2718C41.6 22.9203 37.3327 28.471 32.4364 32.8783C30.0582 35.019 27.6699 36.7667 25.8713 37.9809C25.129 38.482 24.4908 38.8898 24 39.1944Z" fill="currentColor"/>
</svg>
