<svg width="48" height="48" viewBox="0 0 48 48" fill="none" xmlns="http://www.w3.org/2000/svg">
<path fill-rule="evenodd" clip-rule="evenodd" d="M7.36518 2.92052C6.13782 1.69316 4.14788 1.69316 2.92052 2.92052C1.69316 4.14788 1.69316 6.13782 2.92052 7.36518L19.5553 24L2.92052 40.6348C1.69316 41.8622 1.69316 43.8521 2.92052 45.0795C4.14788 46.3068 6.13782 46.3068 7.36518 45.0795L24 28.4447L40.6346 45.0793C41.862 46.3066 43.8519 46.3066 45.0793 45.0793C46.3066 43.8519 46.3066 41.862 45.0793 40.6346L28.4447 24L45.0795 7.36518C46.3068 6.13782 46.3068 4.14788 45.0795 2.92052C43.8521 1.69316 41.8622 1.69316 40.6348 2.92052L24 19.5553L7.36518 2.92052Z" fill="currentColor"/>
</svg>
