<svg width="48" height="48" viewBox="0 0 48 48" fill="none" xmlns="http://www.w3.org/2000/svg">
<path fill-rule="evenodd" clip-rule="evenodd" d="M2.00006 19.3997C2.00006 10.8947 8.89472 4 17.3997 4C25.9047 4 32.7994 10.8947 32.7994 19.3997C32.7994 27.9047 25.9047 34.7993 17.3997 34.7993C14.7568 34.7993 12.2647 34.1318 10.0879 32.9557L4.8957 34.6864C4.10518 34.9499 3.23363 34.7442 2.64441 34.155C2.05519 33.5657 1.84945 32.6942 2.11295 31.9037L3.8437 26.7114C2.66755 24.5347 2.00006 22.0426 2.00006 19.3997ZM17.3997 8.3999C11.3247 8.3999 6.39996 13.3247 6.39996 19.3997C6.39996 21.5676 7.02488 23.5828 8.10356 25.283C8.45791 25.8415 8.54217 26.5298 8.33301 27.1572L7.67844 29.1209L9.64214 28.4664C10.2696 28.2572 10.9579 28.3415 11.5164 28.6958C13.2166 29.7745 15.2318 30.3994 17.3997 30.3994C23.4747 30.3994 28.3995 25.4747 28.3995 19.3997C28.3995 13.3247 23.4747 8.3999 17.3997 8.3999Z" fill="currentColor"/>
<path fill-rule="evenodd" clip-rule="evenodd" d="M30.5598 12.8002L30.6003 12.7998C39.1053 12.7998 45.9999 19.6945 45.9999 28.1995C45.9999 30.8415 45.3329 33.334 44.1563 35.5113L45.8871 40.7035C46.1506 41.494 45.9448 42.3656 45.3556 42.9548C44.7664 43.544 43.8948 43.7497 43.1043 43.4862L37.9121 41.7555C35.7353 42.9318 33.2431 43.5991 30.6003 43.5991C23.8818 43.5991 18.1735 39.298 16.068 33.3058C15.6653 32.1595 16.268 30.9037 17.4143 30.5009C18.5606 30.0981 19.8164 30.7009 20.2192 31.8472C21.7248 36.1323 25.8072 39.1992 30.6003 39.1992C32.7683 39.1992 34.7836 38.5743 36.4834 37.4957C37.0419 37.1413 37.7303 37.057 38.3578 37.2662L40.3216 37.9207L39.667 35.957C39.4634 35.3462 39.5376 34.6769 39.87 34.1255L40.1688 33.6298C41.0793 32.0298 41.6 30.1788 41.6 28.1995C41.6 22.1309 36.6857 17.2102 30.6196 17.1997L30.1841 17.2077L29.9738 17.2189C28.7605 17.2834 27.7247 16.3521 27.6602 15.1388C27.5957 13.9255 28.527 12.8897 29.7403 12.8252L29.9887 12.812C30.0141 12.8107 30.0395 12.8097 30.065 12.8093L30.5598 12.8002Z" fill="currentColor"/>
</svg>
