<svg width="48" height="48" viewBox="0 0 48 48" fill="none" xmlns="http://www.w3.org/2000/svg">
<path fill-rule="evenodd" clip-rule="evenodd" d="M17.2019 2C14.7718 2 12.8019 3.96995 12.8019 6.4V8.60007H10.6003H6.2C4.98497 8.60007 4 9.58504 4 10.8001C4 12.0151 4.98497 13.0001 6.2 13.0001H8.40027V41.6001C8.40027 44.0301 10.3702 46.0001 12.8003 46.0001H34.8003C37.2303 46.0001 39.2003 44.0301 39.2003 41.6001V13.0001H41.4C42.615 13.0001 43.6 12.0151 43.6 10.8001C43.6 9.58504 42.615 8.60007 41.4 8.60007H37.0003H34.8019V6.4C34.8019 3.96995 32.8319 2 30.4019 2H17.2019ZM17.2019 6.4H30.4019V8.6H17.2019V6.4ZM12.8003 13.0001H34.8003V41.6001H12.8003V13.0001ZM19.3995 17.3999C20.6145 17.3999 21.5995 18.3849 21.5995 19.5999V34.9999C21.5995 36.215 20.6145 37.1999 19.3995 37.1999C18.1844 37.1999 17.1995 36.215 17.1995 34.9999L17.1995 19.5999C17.1995 18.3849 18.1844 17.3999 19.3995 17.3999ZM28.2 17.3999C29.415 17.3999 30.4 18.3849 30.4 19.5999V34.9999C30.4 36.215 29.415 37.1999 28.2 37.1999C26.985 37.1999 26 36.215 26 34.9999V19.5999C26 18.3849 26.985 17.3999 28.2 17.3999Z" fill="currentColor"/>
</svg>
