<svg width="48" height="48" viewBox="0 0 48 48" fill="none" xmlns="http://www.w3.org/2000/svg">
<path d="M24.4 2C25.615 2 26.6 2.98497 26.6 4.2V29.6887L33.8444 22.4444C34.7035 21.5852 36.0965 21.5852 36.9556 22.4444C37.8148 23.3035 37.8148 24.6965 36.9556 25.5556L25.9573 36.554C25.5591 36.9531 25.0084 37.2 24.4 37.2C23.7997 37.2 23.2555 36.9596 22.8586 36.5697C22.8538 36.5651 22.8491 36.5604 22.8444 36.5556L11.8444 25.5556C10.9852 24.6965 10.9852 23.3035 11.8444 22.4444C12.7035 21.5852 14.0965 21.5852 14.9556 22.4444L22.2 29.6887L22.2 4.2C22.2 2.98497 23.185 2 24.4 2Z" fill="currentColor"/>
<path d="M9 43.8C9 42.585 9.98497 41.6 11.2 41.6H37.6C38.815 41.6 39.8 42.585 39.8 43.8C39.8 45.015 38.815 46 37.6 46H11.2C9.98497 46 9 45.015 9 43.8Z" fill="currentColor"/>
</svg>
