<svg width="48" height="48" viewBox="0 0 48 48" fill="none" xmlns="http://www.w3.org/2000/svg">
<path fill-rule="evenodd" clip-rule="evenodd" d="M30.3208 3.43192C32.23 1.52269 35.3255 1.52269 37.2347 3.43192L43.5556 9.75273C45.4648 11.662 45.4648 14.7574 43.5556 16.6667L20.1234 40.0988H43.5556C44.9056 40.0988 46 41.1932 46 42.5433C46 43.8933 44.9056 44.9877 43.5556 44.9877H4.44444C3.09441 44.9877 2 43.8933 2 42.5433V42.543V32.7653C2 32.1169 2.25754 31.4952 2.71596 31.0368L22.244 11.5087C22.2528 11.4996 22.2618 11.4906 22.2708 11.4815C22.2798 11.4725 22.2888 11.4636 22.298 11.4548L30.3208 3.43192ZM23.9995 16.6672L6.88889 33.7778V40.0986H13.2097L30.3203 22.988L23.9995 16.6672ZM33.7772 19.5311L27.4564 13.2102L33.7778 6.88889L40.0986 13.2097L33.7772 19.5311Z" fill="currentColor"/>
</svg>
