<svg width="48" height="48" viewBox="0 0 48 48" fill="none" xmlns="http://www.w3.org/2000/svg">
<path fill-rule="evenodd" clip-rule="evenodd" d="M6.58443 24.0001C6.72795 24.166 6.88622 24.3459 7.05863 24.5375C8.02301 25.6095 9.41738 27.0372 11.1343 28.4604C14.6248 31.3536 19.1736 34.0002 24.0002 34.0002C28.8268 34.0002 33.3756 31.3536 36.8661 28.4604C38.583 27.0372 39.9774 25.6095 40.9418 24.5375C41.1142 24.3459 41.2724 24.166 41.416 24.0001C41.2724 23.8342 41.1142 23.6544 40.9418 23.4627C39.9774 22.3907 38.583 20.963 36.8661 19.5399C33.3756 16.6466 28.8268 14 24.0002 14C19.1736 14 14.6248 16.6466 11.1343 19.5399C9.41738 20.963 8.02301 22.3907 7.05863 23.4627C6.88622 23.6544 6.72795 23.8342 6.58443 24.0001ZM44.0004 24.0001C45.6033 22.804 45.6025 22.803 45.6025 22.803L45.5989 22.7981L45.5912 22.7878L45.5659 22.7545C45.5447 22.7266 45.5148 22.6877 45.4765 22.6384C45.3999 22.5397 45.2894 22.3996 45.1467 22.2238C44.8614 21.8725 44.4466 21.3778 43.9156 20.7875C42.8558 19.6095 41.3212 18.0372 39.4188 16.4603C35.6707 13.3535 30.2194 10 24.0002 10C17.781 10 12.3297 13.3535 8.5816 16.4603C6.67917 18.0372 5.14458 19.6095 4.08484 20.7875C3.5538 21.3778 3.13895 21.8725 2.85368 22.2238C2.71098 22.3996 2.60048 22.5397 2.52387 22.6384C2.48555 22.6877 2.4557 22.7266 2.4345 22.7545L2.40922 22.7878L2.4015 22.7981L2.39887 22.8016C2.39887 22.8016 2.39708 22.804 4.00002 24.0001L2.39708 22.804C1.86764 23.5135 1.86764 24.4867 2.39708 25.1962L4.00002 24.0001C2.39708 25.1962 2.39708 25.1962 2.39708 25.1962L2.4015 25.2021L2.40922 25.2124L2.4345 25.2458C2.4557 25.2736 2.48555 25.3126 2.52387 25.3619C2.60048 25.4605 2.71098 25.6007 2.85368 25.7764C3.13895 26.1278 3.5538 26.6225 4.08484 27.2128C5.14458 28.3908 6.67917 29.9631 8.5816 31.54C12.3297 34.6468 17.781 38.0002 24.0002 38.0002C30.2194 38.0002 35.6707 34.6468 39.4188 31.54C41.3212 29.9631 42.8558 28.3908 43.9156 27.2128C44.4466 26.6225 44.8614 26.1278 45.1467 25.7764C45.2894 25.6007 45.3999 25.4605 45.4765 25.3619C45.5148 25.3126 45.5447 25.2736 45.5659 25.2458L45.5912 25.2124L45.5989 25.2021L45.6015 25.1986C45.6015 25.1986 45.6033 25.1962 44.0004 24.0001ZM44.0004 24.0001L45.6033 25.1962C46.1328 24.4867 46.132 23.5125 45.6025 22.803L44.0004 24.0001ZM24.0002 22.0001C22.8956 22.0001 22.0002 22.8955 22.0002 24.0001C22.0002 25.1047 22.8956 26.0001 24.0002 26.0001C25.1048 26.0001 26.0002 25.1047 26.0002 24.0001C26.0002 22.8955 25.1048 22.0001 24.0002 22.0001ZM18.0001 24.0001C18.0001 20.6864 20.6865 18.0001 24.0002 18.0001C27.3139 18.0001 30.0003 20.6864 30.0003 24.0001C30.0003 27.3139 27.3139 30.0002 24.0002 30.0002C20.6865 30.0002 18.0001 27.3139 18.0001 24.0001Z" fill="currentColor"/>
</svg>
