<svg width="48" height="48" viewBox="0 0 48 48" fill="none" xmlns="http://www.w3.org/2000/svg">
<path fill-rule="evenodd" clip-rule="evenodd" d="M2.00004 8.39999C2.00004 5.96994 3.96998 4 6.40003 4H41.5999C44.03 4 45.9999 5.96994 45.9999 8.39999V39.1999C45.9999 41.63 44.03 43.5999 41.5999 43.5999H6.40003C3.96998 43.5999 2.00004 41.63 2.00004 39.1999V8.39999ZM41.5999 8.39999H6.40003V39.1999H41.5999V8.39999Z" fill="currentColor"/>
<path fill-rule="evenodd" clip-rule="evenodd" d="M14.0356 19.9446C15.8077 17.8771 19.0133 17.8994 20.7565 19.9913L28.5478 29.3408L31.7063 26.1824C33.5606 24.328 36.6151 24.4972 38.2533 26.545L45.5178 35.6256C46.2768 36.5744 46.123 37.9588 45.1742 38.7178C44.2255 39.4768 42.841 39.323 42.082 38.3742L34.8175 29.2936L31.6591 32.4521C29.8295 34.2816 26.824 34.1453 25.1676 32.1576L17.3763 22.8081L5.87039 36.2317C5.07967 37.1542 3.69081 37.261 2.7683 36.4703C1.84578 35.6796 1.73895 34.2907 2.52967 33.3682L14.0356 19.9446Z" fill="#1B202C"/>
<path fill-rule="evenodd" clip-rule="evenodd" d="M26.2 17.2C26.2 14.7699 28.1699 12.8 30.6 12.8C33.03 12.8 34.9999 14.7699 34.9999 17.2C34.9999 19.63 33.03 21.6 30.6 21.6C28.1699 21.6 26.2 19.63 26.2 17.2Z" fill="currentColor"/>
</svg>
