<svg width="48" height="48" viewBox="0 0 48 48" fill="none" xmlns="http://www.w3.org/2000/svg">
<path fill-rule="evenodd" clip-rule="evenodd" d="M2.80546 33.0555C3.8794 31.9815 5.6206 31.9815 6.69454 33.0555L13 39.3609L19.3055 33.0555C20.3794 31.9815 22.1206 31.9815 23.1945 33.0555C24.2685 34.1294 24.2685 35.8706 23.1945 36.9445L14.9445 45.1945C14.4288 45.7103 13.7293 46 13 46C12.2707 46 11.5712 45.7103 11.0555 45.1945L2.80546 36.9445C1.73151 35.8706 1.73151 34.1294 2.80546 33.0555Z" fill="currentColor"/>
<path fill-rule="evenodd" clip-rule="evenodd" d="M33.0555 2.80546C34.1294 1.73151 35.8706 1.73151 36.9445 2.80546L45.1945 11.0555C46.2685 12.1294 46.2685 13.8706 45.1945 14.9445C44.1206 16.0185 42.3794 16.0185 41.3055 14.9445L35 8.63909L28.6945 14.9445C27.6206 16.0185 25.8794 16.0185 24.8055 14.9445C23.7315 13.8706 23.7315 12.1294 24.8055 11.0555L33.0555 2.80546Z" fill="currentColor"/>
<path fill-rule="evenodd" clip-rule="evenodd" d="M35 2C36.5188 2 37.75 3.23122 37.75 4.75V43.25C37.75 44.7688 36.5188 46 35 46C33.4812 46 32.25 44.7688 32.25 43.25L32.25 4.75C32.25 3.23122 33.4812 2 35 2Z" fill="currentColor"/>
<path fill-rule="evenodd" clip-rule="evenodd" d="M13 2C14.5188 2 15.75 3.23122 15.75 4.75V43.25C15.75 44.7688 14.5188 46 13 46C11.4812 46 10.25 44.7688 10.25 43.25V4.75C10.25 3.23122 11.4812 2 13 2Z" fill="currentColor"/>
</svg>
