<svg width="48" height="48" viewBox="0 0 48 48" fill="none" xmlns="http://www.w3.org/2000/svg">
<path fill-rule="evenodd" clip-rule="evenodd" d="M27.6447 9.41974C30.6644 6.40003 35.5603 6.40003 38.58 9.41974C41.5997 12.4394 41.5997 17.3353 38.58 20.3551L34.9349 24.0002C33.9284 25.0067 33.9284 26.6387 34.9349 27.6453C35.9415 28.6518 37.5735 28.6518 38.58 27.6453L42.2251 24.0002C47.258 18.9673 47.258 10.8075 42.2251 5.77463C37.1923 0.74179 29.0325 0.74179 23.9996 5.77463L20.3545 9.41974C19.3479 10.4263 19.3479 12.0583 20.3545 13.0648C21.3611 14.0714 22.993 14.0714 23.9996 13.0648L27.6447 9.41974ZM33.1123 14.8881C34.1189 15.8947 34.1189 17.5267 33.1123 18.5332L18.5319 33.1137C17.5253 34.1202 15.8934 34.1202 14.8868 33.1137C13.8802 32.1071 13.8802 30.4751 14.8868 29.4685L29.4672 14.8881C30.4738 13.8816 32.1057 13.8816 33.1123 14.8881ZM13.0648 20.3552C14.0714 21.3618 14.0714 22.9937 13.0648 24.0003L9.41974 27.6454C6.40003 30.6651 6.40003 35.561 9.41974 38.5807C12.4394 41.6004 17.3353 41.6004 20.3551 38.5807L24.0002 34.9356C25.0067 33.929 26.6387 33.929 27.6453 34.9356C28.6518 35.9422 28.6518 37.5741 27.6453 38.5807L24.0002 42.2258C18.9673 47.2587 10.8075 47.2587 5.77463 42.2258C0.74179 37.193 0.74179 29.0331 5.77463 24.0003L9.41974 20.3552C10.4263 19.3486 12.0583 19.3486 13.0648 20.3552Z" fill="currentColor"/>
</svg>
