<svg width="48" height="48" viewBox="0 0 48 48" fill="none" xmlns="http://www.w3.org/2000/svg">
<path d="M24 2C24.5835 2 25.1431 2.23178 25.5556 2.64436C25.9682 3.05695 26.2 3.61652 26.2 4.2V10.8C26.2 11.3835 25.9682 11.9431 25.5556 12.3556C25.1431 12.7682 24.5835 13 24 13C23.4165 13 22.8569 12.7682 22.4444 12.3556C22.0318 11.9431 21.8 11.3835 21.8 10.8V4.2C21.8 3.61652 22.0318 3.05695 22.4444 2.64436C22.8569 2.23178 23.4165 2 24 2V2ZM24 35C24.5835 35 25.1431 35.2318 25.5556 35.6444C25.9682 36.0569 26.2 36.6165 26.2 37.2V43.8C26.2 44.3835 25.9682 44.9431 25.5556 45.3556C25.1431 45.7682 24.5835 46 24 46C23.4165 46 22.8569 45.7682 22.4444 45.3556C22.0318 44.9431 21.8 44.3835 21.8 43.8V37.2C21.8 36.6165 22.0318 36.0569 22.4444 35.6444C22.8569 35.2318 23.4165 35 24 35V35ZM46 24C46 24.5835 45.7682 25.1431 45.3556 25.5556C44.9431 25.9682 44.3835 26.2 43.8 26.2H37.2C36.6165 26.2 36.0569 25.9682 35.6444 25.5556C35.2318 25.1431 35 24.5835 35 24C35 23.4165 35.2318 22.8569 35.6444 22.4444C36.0569 22.0318 36.6165 21.8 37.2 21.8H43.8C44.3835 21.8 44.9431 22.0318 45.3556 22.4444C45.7682 22.8569 46 23.4165 46 24ZM13 24C13 24.5835 12.7682 25.1431 12.3556 25.5556C11.9431 25.9682 11.3835 26.2 10.8 26.2H4.2C3.61652 26.2 3.05695 25.9682 2.64436 25.5556C2.23178 25.1431 2 24.5835 2 24C2 23.4165 2.23178 22.8569 2.64436 22.4444C3.05695 22.0318 3.61652 21.8 4.2 21.8H10.8C11.3835 21.8 11.9431 22.0318 12.3556 22.4444C12.7682 22.8569 13 23.4165 13 24ZM39.5562 39.5562C39.1436 39.9686 38.5842 40.2003 38.0008 40.2003C37.4174 40.2003 36.858 39.9686 36.4454 39.5562L31.7792 34.89C31.3785 34.4751 31.1567 33.9194 31.1617 33.3425C31.1667 32.7657 31.3981 32.2139 31.806 31.806C32.2139 31.3981 32.7657 31.1667 33.3425 31.1617C33.9194 31.1567 34.4751 31.3785 34.89 31.7792L39.5562 36.4432C39.7607 36.6475 39.923 36.8902 40.0337 37.1572C40.1444 37.4243 40.2014 37.7106 40.2014 37.9997C40.2014 38.2888 40.1444 38.5751 40.0337 38.8422C39.923 39.1092 39.7607 39.3519 39.5562 39.5562V39.5562ZM16.2208 16.2208C15.8082 16.6332 15.2488 16.8649 14.6654 16.8649C14.082 16.8649 13.5226 16.6332 13.11 16.2208L8.446 11.5568C8.03319 11.1443 7.80116 10.5847 7.80095 10.0011C7.80075 9.41748 8.03238 8.85771 8.4449 8.4449C8.85742 8.03209 9.41703 7.80006 10.0006 7.79985C10.5842 7.79965 11.144 8.03128 11.5568 8.4438L16.2208 13.11C16.6332 13.5226 16.8649 14.082 16.8649 14.6654C16.8649 15.2488 16.6332 15.8082 16.2208 16.2208V16.2208ZM8.446 39.5562C8.03356 39.1436 7.80187 38.5842 7.80187 38.0008C7.80187 37.4174 8.03356 36.858 8.446 36.4454L13.1122 31.7792C13.3151 31.5691 13.5579 31.4015 13.8263 31.2862C14.0947 31.1709 14.3834 31.1102 14.6755 31.1076C14.9676 31.1051 15.2573 31.1608 15.5277 31.2714C15.7981 31.382 16.0437 31.5454 16.2503 31.7519C16.4568 31.9585 16.6202 32.2041 16.7308 32.4745C16.8414 32.7449 16.8971 33.0346 16.8946 33.3267C16.892 33.6188 16.8313 33.9075 16.716 34.1759C16.6007 34.4443 16.4331 34.6871 16.223 34.89L11.559 39.5562C11.3547 39.7607 11.112 39.923 10.845 40.0337C10.5779 40.1444 10.2916 40.2014 10.0025 40.2014C9.71339 40.2014 9.42711 40.1444 9.16003 40.0337C8.89296 39.923 8.65032 39.7607 8.446 39.5562V39.5562ZM31.7792 16.2208C31.3668 15.8082 31.1351 15.2488 31.1351 14.6654C31.1351 14.082 31.3668 13.5226 31.7792 13.11L36.4432 8.4438C36.8557 8.03099 37.4153 7.79896 37.9989 7.79875C38.5825 7.79855 39.1423 8.03018 39.5551 8.4427C39.9679 8.85522 40.1999 9.41483 40.2001 9.99842C40.2004 10.582 39.9687 11.1418 39.5562 11.5546L34.89 16.2208C34.4774 16.6332 33.918 16.8649 33.3346 16.8649C32.7512 16.8649 32.1918 16.6332 31.7792 16.2208V16.2208Z" fill="currentColor"/>
</svg>
