<svg width="48" height="48" viewBox="0 0 48 48" fill="none" xmlns="http://www.w3.org/2000/svg">
<path fill-rule="evenodd" clip-rule="evenodd" d="M6.39998 6C3.96994 6 2 7.96994 2 10.4V36.7999C2 39.2299 3.96994 41.1998 6.39998 41.1998H41.5998C44.0299 41.1998 45.9998 39.2299 45.9998 36.7999V10.429C46.0001 10.4043 46.0001 10.3797 45.9996 10.355C45.9754 7.94568 44.0148 6 41.5998 6H6.39998ZM40.2801 10.4L7.84747 10.4L24.5271 23.0127L40.2801 10.4ZM6.39998 14.8217V36.7999H41.5998V14.9799L25.9407 27.5174C25.1548 28.1467 24.0419 28.1621 23.2388 27.5548L6.39998 14.8217Z" fill="currentColor"/>
</svg>
