<svg width="48" height="48" viewBox="0 0 48 48" fill="none" xmlns="http://www.w3.org/2000/svg">
<path fill-rule="evenodd" clip-rule="evenodd" d="M26.5754 4.57538C26.5754 3.15304 25.4223 2 24 2C22.5777 2 21.4246 3.15304 21.4246 4.57538V21.4247H4.57537C3.15303 21.4247 2 22.5778 2 24.0001C2 25.4225 3.15303 26.5755 4.57537 26.5755H21.4246V43.4246C21.4246 44.847 22.5777 46 24 46C25.4223 46 26.5754 44.847 26.5754 43.4246V26.5755H43.4246C44.847 26.5755 46 25.4225 46 24.0001C46 22.5778 44.847 21.4247 43.4246 21.4247H26.5754V4.57538Z" fill="currentColor"/>
</svg>
