<svg width="48" height="48" viewBox="0 0 48 48" fill="none" xmlns="http://www.w3.org/2000/svg">
<path fill-rule="evenodd" clip-rule="evenodd" d="M15.3979 5.68209C17.7555 3.32449 20.9531 2 24.2873 2C27.6214 2 30.819 3.32449 33.1766 5.68209C35.5342 8.0397 36.8587 11.2373 36.8587 14.5715V17.7141C39.4616 17.7149 41.5715 19.8252 41.5715 22.4284V41.2855C41.5715 43.8892 39.4608 45.9998 36.8572 45.9998H11.7143C9.11066 45.9998 7 43.8892 7 41.2855V22.4284C7 19.8247 9.11066 17.7141 11.7143 17.7141H11.7158V14.5715C11.7158 11.2373 13.0403 8.0397 15.3979 5.68209ZM35.2873 20.8572L35.2597 20.8569H13.3148L13.2872 20.8572L13.2597 20.8569H11.7143C10.8464 20.8569 10.1429 21.5605 10.1429 22.4284V41.2855C10.1429 42.1534 10.8464 42.857 11.7143 42.857H36.8572C37.7251 42.857 38.4286 42.1534 38.4286 41.2855V22.4284C38.4286 21.5605 37.7251 20.8569 36.8572 20.8569H35.3148L35.2873 20.8572ZM33.7158 14.5715V17.7141H14.8587V14.5715C14.8587 12.0708 15.852 9.67264 17.6202 7.90443C19.3884 6.13623 21.7866 5.14286 24.2873 5.14286C26.7879 5.14286 29.1861 6.13623 30.9543 7.90443C32.7225 9.67264 33.7158 12.0708 33.7158 14.5715ZM24.2862 28.7144C22.5505 28.7144 21.1434 30.1215 21.1434 31.8572C21.1434 33.593 22.5505 35.0001 24.2862 35.0001C26.022 35.0001 27.4291 33.593 27.4291 31.8572C27.4291 30.1215 26.022 28.7144 24.2862 28.7144Z" fill="currentColor"/>
<path fill-rule="evenodd" clip-rule="evenodd" d="M15.2563 5.54048C17.6514 3.14536 20.8999 1.7998 24.2871 1.7998C27.6743 1.7998 30.9227 3.14536 33.3178 5.54048C35.7129 7.93559 37.0585 11.1841 37.0585 14.5713V17.5179C39.6792 17.6236 41.7713 19.7816 41.7713 22.4282V41.2854C41.7713 43.9994 39.5711 46.1996 36.857 46.1996H11.7141C9.00001 46.1996 6.7998 43.9994 6.7998 41.2854V22.4282C6.7998 19.7806 8.89354 17.622 11.5156 17.5178V14.5713C11.5156 11.1841 12.8612 7.93559 15.2563 5.54048ZM24.2871 2.1998C21.0059 2.1998 17.8592 3.50322 15.5391 5.82332C13.219 8.14342 11.9156 11.2901 11.9156 14.5713V17.7139C11.9156 17.8243 11.8261 17.9139 11.7156 17.9139H11.7141C9.22092 17.9139 7.1998 19.935 7.1998 22.4282V41.2854C7.1998 43.7785 9.22092 45.7996 11.7141 45.7996H36.857C39.3502 45.7996 41.3713 43.7785 41.3713 41.2854V22.4282C41.3713 19.9355 39.351 17.9147 36.8584 17.9139C36.748 17.9138 36.6585 17.8243 36.6585 17.7139V14.5713C36.6585 11.2901 35.3551 8.14342 33.035 5.82332C30.7149 3.50322 27.5682 2.1998 24.2871 2.1998ZM17.4786 7.76281C19.2843 5.9571 21.7334 4.94267 24.2871 4.94267C26.8407 4.94267 29.2898 5.9571 31.0955 7.76281C32.9012 9.56853 33.9156 12.0176 33.9156 14.5713V17.7139C33.9156 17.8243 33.8261 17.9139 33.7156 17.9139H14.8585C14.748 17.9139 14.6585 17.8243 14.6585 17.7139V14.5713C14.6585 12.0176 15.6729 9.56853 17.4786 7.76281ZM24.2871 5.34267C21.8395 5.34267 19.4922 6.31496 17.7615 8.04566C16.0308 9.77635 15.0585 12.1237 15.0585 14.5713V17.5139H33.5156V14.5713C33.5156 12.1237 32.5434 9.77635 30.8127 8.04566C29.082 6.31496 26.7346 5.34267 24.2871 5.34267ZM13.3129 20.6568L13.3146 20.6567L35.2613 20.6567L35.2854 20.657H35.2888L35.3129 20.6568L35.3146 20.6567L36.857 20.6567C37.8353 20.6567 38.6284 21.4498 38.6284 22.4282V41.2854C38.6284 42.2637 37.8353 43.0568 36.857 43.0568H11.7141C10.7358 43.0568 9.94267 42.2637 9.94267 41.2854V22.4282C9.94267 21.4498 10.7358 20.6567 11.7141 20.6567H13.2612L13.2853 20.657H13.2888L13.3129 20.6568ZM11.7141 21.0567C10.9567 21.0567 10.3427 21.6708 10.3427 22.4282V41.2854C10.3427 42.0428 10.9567 42.6568 11.7141 42.6568H36.857C37.6144 42.6568 38.2284 42.0428 38.2284 41.2854V22.4282C38.2284 21.6708 37.6144 21.0567 36.857 21.0567H35.3154L35.2888 21.057H35.2854L35.2595 21.0567H13.3154L13.2888 21.057H13.2853L13.2595 21.0567H11.7141ZM24.286 28.9142C22.6607 28.9142 21.3432 30.2317 21.3432 31.857C21.3432 33.4823 22.6607 34.7999 24.286 34.7999C25.9113 34.7999 27.2289 33.4823 27.2289 31.857C27.2289 30.2317 25.9113 28.9142 24.286 28.9142ZM20.9432 31.857C20.9432 30.0108 22.4398 28.5142 24.286 28.5142C26.1323 28.5142 27.6289 30.0108 27.6289 31.857C27.6289 33.7032 26.1323 35.1999 24.286 35.1999C22.4398 35.1999 20.9432 33.7032 20.9432 31.857Z" fill="currentColor"/>
<path fill-rule="evenodd" clip-rule="evenodd" d="M14.974 5.25773C17.4441 2.78761 20.7944 1.3999 24.2876 1.3999C27.7809 1.3999 31.1311 2.78761 33.6013 5.25773C36.0714 7.72786 37.4591 11.0781 37.4591 14.5714V17.1477C40.111 17.4465 42.1719 19.6966 42.1719 22.4283V41.2855C42.1719 44.2205 39.7926 46.5998 36.8576 46.5998H11.7147C8.77968 46.5998 6.40039 44.2205 6.40039 41.2855V22.4283C6.40039 19.6956 8.4628 17.4448 11.1162 17.1473V14.5714C11.1162 11.0781 12.5039 7.72786 14.974 5.25773ZM24.2876 2.5999C21.1126 2.5999 18.0676 3.86118 15.8225 6.10626C13.5775 8.35134 12.3162 11.3963 12.3162 14.5714V17.714C12.3162 18.0453 12.0476 18.314 11.7162 18.314H11.7147C9.44242 18.314 7.60039 20.156 7.60039 22.4283V41.2855C7.60039 43.5577 9.44242 45.3997 11.7147 45.3997H36.8576C39.1299 45.3997 40.9719 43.5577 40.9719 41.2855V22.4283C40.9719 20.1565 39.1306 18.3147 36.8589 18.314C36.5276 18.3139 36.2591 18.0453 36.2591 17.714V14.5714C36.2591 11.3963 34.9978 8.35134 32.7527 6.10626C30.5077 3.86118 27.4627 2.5999 24.2876 2.5999ZM17.1964 7.48007C19.0771 5.59934 21.6279 4.54276 24.2876 4.54276C26.9474 4.54276 29.4982 5.59934 31.3789 7.48007C33.2597 9.3608 34.3162 11.9116 34.3162 14.5714V17.714C34.3162 18.0454 34.0476 18.314 33.7162 18.314H14.8591C14.5277 18.314 14.2591 18.0454 14.2591 17.714V14.5714C14.2591 11.9116 15.3156 9.3608 17.1964 7.48007ZM33.1162 17.114H15.4591V14.5714C15.4591 12.2299 16.3892 9.98428 18.0449 8.3286C19.7006 6.67292 21.9462 5.74276 24.2876 5.74276C26.6291 5.74276 28.8747 6.67292 30.5304 8.3286C32.1861 9.98428 33.1162 12.2299 33.1162 14.5714V17.114ZM13.3152 20.2568L35.2659 20.2568L35.2859 20.2571L35.2877 20.2571L35.2894 20.2571L35.3096 20.2569L35.3152 20.2568L36.8576 20.2568C38.0568 20.2568 39.029 21.229 39.029 22.4283V41.2855C39.029 42.4847 38.0568 43.4569 36.8576 43.4569H11.7147C10.5154 43.4569 9.54325 42.4847 9.54325 41.2855V22.4283C9.54325 21.229 10.5154 20.2568 11.7147 20.2568H13.2658L13.2859 20.2571L13.2876 20.2571L13.2893 20.2571L13.3095 20.2569L13.3152 20.2568ZM35.316 21.4568L35.2928 21.4571L35.2894 21.4571H35.2824L35.2601 21.4568H13.316L13.2928 21.4571L13.2893 21.4571H13.2824L13.2601 21.4568H11.7147C11.1782 21.4568 10.7433 21.8918 10.7433 22.4283V41.2855C10.7433 41.822 11.1782 42.2569 11.7147 42.2569H36.8576C37.3941 42.2569 37.829 41.822 37.829 41.2855V22.4283C37.829 21.8918 37.3941 21.4568 36.8576 21.4568H35.316ZM20.5438 31.8571C20.5438 29.79 22.2195 28.1143 24.2866 28.1143C26.3538 28.1143 28.0295 29.79 28.0295 31.8571C28.0295 33.9243 26.3538 35.6 24.2866 35.6C22.2195 35.6 20.5438 33.9243 20.5438 31.8571ZM24.2866 29.3143C22.8822 29.3143 21.7438 30.4528 21.7438 31.8571C21.7438 33.2615 22.8822 34.4 24.2866 34.4C25.691 34.4 26.8295 33.2615 26.8295 31.8571C26.8295 30.4528 25.691 29.3143 24.2866 29.3143Z" fill="currentColor"/>
</svg>
