<svg width="48" height="48" viewBox="0 0 48 48" fill="none" xmlns="http://www.w3.org/2000/svg">
<path fill-rule="evenodd" clip-rule="evenodd" d="M38.919 2C40.134 2 41.119 2.98497 41.119 4.2V15.2C41.119 16.415 40.134 17.4 38.919 17.4H27.919C26.704 17.4 25.719 16.415 25.719 15.2C25.719 13.985 26.704 13 27.919 13H34.2963C33.2395 11.9647 32.034 11.082 30.7132 10.3842C28.1658 9.03822 25.2918 8.43389 22.4179 8.63989C19.5441 8.84588 16.7857 9.85395 14.4562 11.5495C12.1268 13.2451 10.3197 15.5601 9.24038 18.2315C8.78523 19.3581 7.503 19.9024 6.37645 19.4472C5.2499 18.992 4.70562 17.7098 5.16078 16.5833C6.54847 13.1486 8.87187 10.1721 11.8669 7.9921C14.8619 5.81209 18.4084 4.51601 22.1034 4.25115C25.7983 3.9863 29.4934 4.7633 32.7687 6.49384C34.1992 7.24964 35.5246 8.17409 36.719 9.24242V4.2C36.719 2.98497 37.704 2 38.919 2ZM41.8789 31.4173C42.3341 30.2907 41.7898 29.0085 40.6633 28.5533C39.5367 28.0982 38.2545 28.6424 37.7993 29.769C36.72 32.4404 34.9129 34.7554 32.5835 36.451C30.254 38.1466 27.4956 39.1546 24.6218 39.3606C21.7479 39.5666 18.874 38.9623 16.3265 37.6163C15.0055 36.9184 13.7998 36.0356 12.743 35.0001H19.1198C20.3348 35.0001 21.3198 34.0151 21.3198 32.8001C21.3198 31.585 20.3348 30.6001 19.1198 30.6001H8.1198C6.90477 30.6001 5.9198 31.585 5.9198 32.8001V43.8001C5.9198 45.0151 6.90477 46.0001 8.1198 46.0001C9.33482 46.0001 10.3198 45.0151 10.3198 43.8001V38.7573C11.5145 39.8259 12.8401 40.7507 14.271 41.5067C17.5463 43.2372 21.2414 44.0142 24.9364 43.7494C28.6313 43.4845 32.1778 42.1884 35.1728 40.0084C38.1679 37.8284 40.4912 34.8519 41.8789 31.4173Z" fill="currentColor"/>
</svg>
