<svg width="48" height="48" viewBox="0 0 48 48" fill="none" xmlns="http://www.w3.org/2000/svg">
<path fill-rule="evenodd" clip-rule="evenodd" d="M33.4945 14.5051C34.3618 15.3724 34.3618 16.7785 33.4945 17.6458L22.732 28.4084C21.8647 29.2757 20.4585 29.2757 19.5912 28.4084C18.7239 27.5411 18.7239 26.1349 19.5912 25.2676L30.3538 14.5051C31.2211 13.6378 32.6272 13.6378 33.4945 14.5051Z" fill="currentColor"/>
<path fill-rule="evenodd" clip-rule="evenodd" d="M40.2456 2.20284C43.6536 1.15422 46.8458 4.34634 45.7972 7.75435L34.9942 42.864C33.8158 46.6939 28.5682 47.1282 26.7761 43.5442L19.336 28.664L4.45585 21.2239C0.871779 19.4318 1.30606 14.1842 5.13599 13.0058L40.2456 2.20284ZM41.5519 6.44812L6.44223 17.2511L21.3224 24.6912C22.182 25.121 22.879 25.818 23.3088 26.6776L30.7489 41.5578L41.5519 6.44812Z" fill="currentColor"/>
</svg>
