<svg width="48" height="48" viewBox="0 0 48 48" fill="none" xmlns="http://www.w3.org/2000/svg">
<path fill-rule="evenodd" clip-rule="evenodd" d="M6.39996 19.6001C6.39996 12.31 12.3097 6.4002 19.5998 6.4002C26.8899 6.4002 32.7997 12.31 32.7997 19.6001C32.7997 26.8902 26.8899 32.7999 19.5998 32.7999C12.3097 32.7999 6.39996 26.8902 6.39996 19.6001ZM19.5998 2.00024C9.87971 2.00024 2 9.87996 2 19.6001C2 29.3202 9.87971 37.1999 19.5998 37.1999C23.6671 37.1999 27.4122 35.8202 30.3926 33.5033L42.2446 45.3554C43.1038 46.2145 44.4967 46.2145 45.3559 45.3554C46.215 44.4962 46.215 43.1033 45.3559 42.2441L33.5037 30.392C35.8202 27.4118 37.1997 23.667 37.1997 19.6001C37.1997 9.87996 29.3199 2.00024 19.5998 2.00024Z" fill="currentColor"/>
</svg>
