<svg width="48" height="48" viewBox="0 0 48 48" fill="none" xmlns="http://www.w3.org/2000/svg">
<path fill-rule="evenodd" clip-rule="evenodd" d="M6.4 5C3.96995 5 2 6.96995 2 9.4V37.8226C2 41.5121 6.2677 43.5632 9.14866 41.2584L15.9717 35.8H41.6C44.0301 35.8 46 33.8301 46 31.4V9.4C46 6.96995 44.0301 5 41.6 5H6.4ZM6.4 9.4H41.6V31.4H15.9717C14.9726 31.4 14.0032 31.74 13.2231 32.3642L6.4 37.8226V9.4ZM32.7997 18.2005C31.5847 18.2005 30.5997 19.1854 30.5997 20.4005V20.4049C30.5997 21.6199 31.5847 22.6049 32.7997 22.6049H32.8041C34.0192 22.6049 35.0041 21.6199 35.0041 20.4049V20.4005C35.0041 19.1854 34.0192 18.2005 32.8041 18.2005H32.7997ZM21.8019 20.4005C21.8019 19.1854 22.7869 18.2005 24.0019 18.2005H24.0063C25.2213 18.2005 26.2063 19.1854 26.2063 20.4005V20.4049C26.2063 21.6199 25.2213 22.6049 24.0063 22.6049H24.0019C22.7869 22.6049 21.8019 21.6199 21.8019 20.4049V20.4005ZM15.2 18.2005C13.985 18.2005 13 19.1854 13 20.4005V20.4049C13 21.6199 13.985 22.6049 15.2 22.6049H15.2044C16.4194 22.6049 17.4044 21.6199 17.4044 20.4049V20.4005C17.4044 19.1854 16.4194 18.2005 15.2044 18.2005H15.2Z" fill="currentColor"/>
</svg>
