<svg width="48" height="48" viewBox="0 0 48 48" fill="none" xmlns="http://www.w3.org/2000/svg">
<path fill-rule="evenodd" clip-rule="evenodd" d="M6.4 24C6.4 14.2798 14.2798 6.4 24 6.4C33.7202 6.4 41.6 14.2798 41.6 24C41.6 33.7202 33.7202 41.6 24 41.6C14.2798 41.6 6.4 33.7202 6.4 24ZM24 2C11.8497 2 2 11.8497 2 24C2 36.1503 11.8497 46 24 46C36.1503 46 46 36.1503 46 24C46 11.8497 36.1503 2 24 2ZM26.2019 12.9999C26.2019 11.7848 25.2169 10.7999 24.0019 10.7999C22.7869 10.7999 21.8019 11.7848 21.8019 12.9999V23.9999C21.8019 25.2149 22.7869 26.1999 24.0019 26.1999H35.0019C36.2169 26.1999 37.2019 25.2149 37.2019 23.9999C37.2019 22.7848 36.2169 21.7999 35.0019 21.7999H26.2019V12.9999Z" fill="currentColor"/>
</svg>
