<svg width="48" height="48" viewBox="0 0 48 48" fill="none" xmlns="http://www.w3.org/2000/svg">
<path fill-rule="evenodd" clip-rule="evenodd" d="M36.6765 16.2454C37.6033 15.3185 37.6033 13.8188 36.6765 12.892L25.6788 1.89429C24.7494 0.962563 23.2382 0.975356 22.3215 1.89357L22.3208 1.8943L11.3231 12.892C10.3963 13.8188 10.3963 15.3185 11.3231 16.2454C11.7852 16.7075 12.3935 16.9401 12.9998 16.9401C13.6061 16.9401 14.2144 16.7075 14.6765 16.2454L21.6284 9.29348V34.9973C21.6284 36.306 22.6885 37.3687 23.9998 37.3687C25.3112 37.3687 26.3712 36.306 26.3712 34.9973V9.29349L33.3231 16.2454C34.25 17.1722 35.7496 17.1722 36.6765 16.2454ZM12.9998 16.1401C13.4021 16.1401 13.8044 15.9861 14.1108 15.6797L22.4282 7.36231V7.36192L14.1106 15.6795C13.8042 15.9859 13.4019 16.1399 12.9996 16.1399C12.5974 16.1399 12.1952 15.986 11.8888 15.6797C11.8887 15.6796 11.8887 15.6796 11.8886 15.6795C11.8874 15.6783 11.8863 15.6772 11.8851 15.676M12.9998 16.1401C12.5975 16.1401 12.1952 15.9861 11.8888 15.6797L12.9998 16.1401ZM36.1108 15.6797C36.7241 15.0664 36.7252 14.0759 36.1143 13.4612C36.725 14.0759 36.7238 15.0663 36.1106 15.6795C35.4962 16.2939 34.503 16.2939 33.8886 15.6795L33.8888 15.6797C34.5032 16.2941 35.4964 16.2941 36.1108 15.6797ZM25.5712 34.9973V7.36211L25.571 7.36192V34.9971C25.571 35.8645 24.8686 36.5685 23.9996 36.5685C23.5652 36.5685 23.1724 36.3926 22.8882 36.1083C23.1724 36.3927 23.5653 36.5687 23.9998 36.5687C24.8688 36.5687 25.5712 35.8647 25.5712 34.9973ZM1.2002 36.5686V42.8543C1.2002 45.0294 2.96794 46.7971 5.14305 46.7971H42.8573C45.0325 46.7971 46.8002 45.0294 46.8002 42.8543V36.5686C46.8002 35.2598 45.7401 34.1971 44.4288 34.1971C43.1174 34.1971 42.0573 35.2598 42.0573 36.5686V42.0543H5.94305V36.5686C5.94305 35.2598 4.88297 34.1971 3.57162 34.1971C2.26028 34.1971 1.2002 35.2598 1.2002 36.5686ZM2.90494 45.0588C3.47527 45.6378 4.2679 45.9971 5.14305 45.9971H42.8573C44.5906 45.9971 46.0002 44.5876 46.0002 42.8543V36.5686C46.0002 36.1433 45.8313 35.7573 45.5568 35.4742C45.8312 35.7572 46 36.1432 46 36.5684V42.8541C46 44.5874 44.5904 45.9969 42.8571 45.9969H5.14286C4.2678 45.9969 3.47525 45.6377 2.90494 45.0588ZM5.14305 42.8541V36.5686C5.14305 36.1399 4.9715 35.7511 4.69306 35.4675C4.97138 35.7511 5.14286 36.1398 5.14286 36.5684V42.8541H5.14305Z" fill="currentColor"/>
</svg>
