<svg width="48" height="48" viewBox="0 0 48 48" fill="none" xmlns="http://www.w3.org/2000/svg">
<path fill-rule="evenodd" clip-rule="evenodd" d="M12.5209 37.8874C9.7066 39.6464 8.4 41.7947 8.4 43.8C8.4 45.015 7.41503 46 6.2 46C4.98497 46 4 45.015 4 43.8C4 39.7302 6.6333 36.3785 10.1889 34.1562C13.7756 31.9146 18.5935 30.6 23.8 30.6C29.0065 30.6 33.8244 31.9146 37.4111 34.1562C40.9667 36.3785 43.6 39.7302 43.6 43.8C43.6 45.015 42.615 46 41.4 46C40.185 46 39.2 45.015 39.2 43.8C39.2 41.7947 37.8934 39.6464 35.0791 37.8874C32.2958 36.1479 28.3137 35 23.8 35C19.2863 35 15.3042 36.1479 12.5209 37.8874Z" fill="currentColor"/>
<path fill-rule="evenodd" clip-rule="evenodd" d="M23.8 6.4C18.9399 6.4 15 10.3399 15 15.2C15 20.0601 18.9399 24 23.8 24C28.6601 24 32.6 20.0601 32.6 15.2C32.6 10.3399 28.6601 6.4 23.8 6.4ZM10.6 15.2C10.6 7.90984 16.5098 2 23.8 2C31.0902 2 37 7.90984 37 15.2C37 22.4902 31.0902 28.4 23.8 28.4C16.5098 28.4 10.6 22.4902 10.6 15.2Z" fill="currentColor"/>
</svg>
