<svg width="48" height="48" viewBox="0 0 48 48" fill="none" xmlns="http://www.w3.org/2000/svg">
<path fill-rule="evenodd" clip-rule="evenodd" d="M24 8C15.1634 8 8 15.1634 8 24C8 32.8366 15.1634 40 24 40C32.8366 40 40 32.8366 40 24C40 15.1634 32.8366 8 24 8ZM4 24C4 12.9543 12.9543 4 24 4C35.0457 4 44 12.9543 44 24C44 35.0457 35.0457 44 24 44C12.9543 44 4 35.0457 4 24Z" fill="currentColor"/>
<path fill-rule="evenodd" clip-rule="evenodd" d="M19.0146 16.2596C19.6416 15.9046 20.4111 15.9143 21.029 16.285L31.029 22.285C31.6314 22.6465 32 23.2975 32 24C32 24.7025 31.6314 25.3535 31.029 25.715L21.029 31.715C20.4111 32.0857 19.6416 32.0954 19.0146 31.7404C18.3876 31.3854 18 30.7205 18 30V18C18 17.2795 18.3876 16.6146 19.0146 16.2596ZM22 21.5324V26.4676L26.1127 24L22 21.5324Z" fill="currentColor"/>
</svg>
