<svg width="48" height="48" viewBox="0 0 48 48" fill="none" xmlns="http://www.w3.org/2000/svg">
<path fill-rule="evenodd" clip-rule="evenodd" d="M24 6.4C14.2798 6.4 6.4 14.2798 6.4 24C6.4 33.7202 14.2798 41.6 24 41.6C33.7202 41.6 41.6 33.7202 41.6 24C41.6 14.2798 33.7202 6.4 24 6.4ZM2 24C2 11.8497 11.8497 2 24 2C36.1503 2 46 11.8497 46 24C46 36.1503 36.1503 46 24 46C11.8497 46 2 36.1503 2 24ZM21.6904 31.5899C21.6904 30.3749 22.6754 29.3899 23.8904 29.3899H24.1104C25.3255 29.3899 26.3104 30.3749 26.3104 31.5899V31.8099C26.3104 33.0249 25.3255 34.0099 24.1104 34.0099H23.8904C22.6754 34.0099 21.6904 33.0249 21.6904 31.8099V31.5899ZM26.2018 16.19C26.2018 14.975 25.2168 13.99 24.0018 13.99C22.7867 13.99 21.8018 14.975 21.8018 16.19V24.99C21.8018 26.205 22.7867 27.19 24.0018 27.19C25.2168 27.19 26.2018 26.205 26.2018 24.99V16.19Z" fill="currentColor"/>
</svg>
