<svg width="259" height="60" viewBox="0 0 259 60" fill="none" xmlns="http://www.w3.org/2000/svg">
<rect width="259" height="60" rx="8" fill="#9262F7"/>
<path d="M119.655 23.043H108.739V24.5195H117.844C117.844 25.5215 117.792 26.6816 117.475 28.2109H106.911V29.7051H121.465V28.2109H119.321C119.655 26.5059 119.655 25.1699 119.655 24.0977V23.043ZM108.581 32.5176H117.827V33.9414H108.616V38.3008H120.077V36.8418H110.444V35.3301H119.673V31.0586H108.581V32.5176ZM127.715 25.5391V23.6055H125.869V25.5391C125.869 27.3672 124.85 29.459 122.758 30.4258L123.725 31.7969C125.219 31.1113 126.221 29.8633 126.783 28.4043C127.328 29.9336 128.348 31.3047 129.965 32.0078C131.582 31.3047 132.619 29.9512 133.146 28.4395C133.709 29.8984 134.729 31.1289 136.24 31.7969L137.207 30.4258C135.08 29.5117 134.078 27.4902 134.078 25.5391V23.6055H132.232V25.5391C132.232 27.1211 131.547 28.9492 129.982 30.0566C128.4 28.9316 127.715 27.0684 127.715 25.5391ZM122.723 36.3848H137.277V34.8555H122.723V36.3848ZM151.806 22.375H149.96V38.4414H151.806V22.375ZM138.658 34.0996L139.642 35.5762C145.161 32.9043 147.06 28.8438 147.06 24.0801H139.449V25.5742H145.179C144.845 29.2832 142.859 32.0957 138.658 34.0996Z" fill="white"/>
</svg>
