<svg width="48" height="48" viewBox="0 0 48 48" fill="none" xmlns="http://www.w3.org/2000/svg">
<path d="M0 24C0 10.7452 10.7452 0 24 0C37.2548 0 48 10.7452 48 24C48 37.2548 37.2548 48 24 48C10.7452 48 0 37.2548 0 24Z" fill="#1B202C"/>
<path fill-rule="evenodd" clip-rule="evenodd" d="M39.8437 12.9097C40.7188 13.7847 40.7188 15.2034 39.8437 16.0784L20.8313 35.0909C19.9562 35.9659 18.5375 35.9659 17.6625 35.0909L8.15627 25.5847C7.28124 24.7096 7.28124 23.291 8.15627 22.4159C9.03129 21.5409 10.45 21.5409 11.325 22.4159L19.2469 30.3378L36.675 12.9097C37.55 12.0347 38.9687 12.0347 39.8437 12.9097Z" fill="currentColor"/>
</svg>
