<svg width="36" height="36" viewBox="0 0 36 36" fill="none" xmlns="http://www.w3.org/2000/svg">
<path d="M0 18C0 8.05888 8.05888 0 18 0C27.9411 0 36 8.05888 36 18C36 27.9411 27.9411 36 18 36C8.05888 36 0 27.9411 0 18Z" fill="#EDF1F7"/>
<path d="M17.995 27C15.5364 27 15.2465 26.987 14.2871 26.9451C13.5388 26.9205 12.8003 26.7687 12.1033 26.496C10.8973 26.0273 9.94362 25.0747 9.47474 23.8703C9.21219 23.1717 9.07058 22.4336 9.05597 21.6876C9 20.7315 9 20.4182 9 17.982C9 15.52 9.01299 15.2325 9.05597 14.2794C9.0709 13.5345 9.2125 12.7974 9.47474 12.0998C9.94311 10.8937 10.8983 9.94029 12.1063 9.47305C12.8045 9.20978 13.5428 9.06801 14.2891 9.05389C15.2435 9 15.5574 9 17.995 9C20.4736 9 20.7585 9.01297 21.7029 9.05389C22.4511 9.06813 23.1914 9.20989 23.8917 9.47305C25.0994 9.94082 26.0544 10.8941 26.5233 12.0998C26.7902 12.8076 26.9326 13.5561 26.944 14.3124C27 15.2685 27 15.5808 27 18.016C27 20.4511 26.986 20.7705 26.944 21.7156C26.9292 22.4623 26.7872 23.201 26.5243 23.9002C26.0542 25.1055 25.0991 26.0585 23.8917 26.5269C23.1924 26.7886 22.4536 26.93 21.7069 26.9451C20.7525 27 20.4396 27 17.995 27ZM17.961 10.5798C15.5164 10.5798 15.2625 10.5918 14.3081 10.6347C13.7384 10.6423 13.1742 10.7472 12.64 10.9451C11.8512 11.2465 11.227 11.8673 10.9219 12.6537C10.7223 13.1929 10.6171 13.7625 10.6111 14.3373C10.5581 15.3044 10.5581 15.5579 10.5581 17.982C10.5581 20.3772 10.5671 20.6677 10.6111 21.6287C10.6201 22.1978 10.7251 22.7613 10.9219 23.2954C11.2274 24.0813 11.8515 24.7016 12.64 25.003C13.1738 25.2022 13.7382 25.3072 14.3081 25.3134C15.2755 25.3693 15.5304 25.3693 17.961 25.3693C20.4127 25.3693 20.6665 25.3573 21.613 25.3134C22.1831 25.3064 22.7477 25.2014 23.2821 25.003C24.0661 24.699 24.6862 24.0801 24.9911 23.2974C25.1904 22.7577 25.2955 22.1879 25.3019 21.6128H25.3129C25.3559 20.6587 25.3559 20.4042 25.3559 17.9661C25.3559 15.5279 25.3449 15.2715 25.3019 14.3184C25.293 13.75 25.1879 13.1871 24.9911 12.6537C24.6869 11.8698 24.0667 11.2498 23.2821 10.9451C22.7478 10.7462 22.1831 10.6412 21.613 10.6347C20.6465 10.5798 20.3937 10.5798 17.961 10.5798ZM17.995 22.5918C16.126 22.593 14.4404 21.4698 13.7242 19.746C13.0081 18.0221 13.4025 16.0373 14.7235 14.717C16.0444 13.3968 18.0318 13.0013 19.7588 13.7149C21.4857 14.4285 22.612 16.1108 22.6124 17.977C22.6097 20.523 20.5446 22.5869 17.995 22.5918ZM17.995 14.981C16.3391 14.981 14.9967 16.3215 14.9967 17.975C14.9967 19.6286 16.3391 20.9691 17.995 20.9691C19.6509 20.9691 20.9933 19.6286 20.9933 17.975C20.9895 16.3231 19.6493 14.9849 17.995 14.981ZM22.7923 14.2695C22.1981 14.2673 21.7178 13.785 21.7189 13.1916C21.72 12.5982 22.2021 12.1178 22.7963 12.1178C23.3906 12.1178 23.8726 12.5982 23.8737 13.1916C23.874 13.4779 23.7601 13.7525 23.5572 13.9548C23.3543 14.157 23.079 14.2703 22.7923 14.2695Z" fill="#727F96"/>
</svg>
