<svg width="36" height="36" viewBox="0 0 36 36" fill="none" xmlns="http://www.w3.org/2000/svg">
<path d="M0 18C0 8.05888 8.05888 0 18 0C27.9411 0 36 8.05888 36 18C36 27.9411 27.9411 36 18 36C8.05888 36 0 27.9411 0 18Z" fill="#EDF1F7"/>
<path d="M26.9996 26.9986V20.4063C26.9996 17.1663 26.3021 14.6914 22.5222 14.6914C20.6997 14.6914 19.4847 15.6814 18.9897 16.6264H18.9447V14.9839H15.3672V26.9986H19.1022V21.0362C19.1022 19.4613 19.3947 17.9538 21.3297 17.9538C23.2421 17.9538 23.2646 19.7313 23.2646 21.1262V26.9761H26.9996V26.9986Z" fill="#727F96"/>
<path d="M9.29297 14.9854H13.028V27H9.29297V14.9854Z" fill="#727F96"/>
<path d="M11.16 9C9.9675 9 9 9.96748 9 11.1599C9 12.3524 9.9675 13.3424 11.16 13.3424C12.3525 13.3424 13.32 12.3524 13.32 11.1599C13.32 9.96748 12.3525 9 11.16 9Z" fill="#727F96"/>
</svg>
