<svg width="90" height="88" viewBox="0 0 90 88" fill="none" xmlns="http://www.w3.org/2000/svg">
<g clip-path="url(#clip0_1065_7548)">
<path d="M15.9375 7.07279e-06H74.0625C76.156 -0.00196606 78.2293 0.408923 80.1639 1.20916C82.0984 2.00939 83.8561 3.18327 85.3364 4.66359C86.8168 6.14392 87.9906 7.90164 88.7909 9.83616C89.5911 11.7707 90.002 13.844 90 15.9375V71.8125C90.002 73.906 89.5911 75.9793 88.7909 77.9139C87.9906 79.8484 86.8168 81.6061 85.3364 83.0864C83.8561 84.5668 82.0984 85.7406 80.1639 86.5409C78.2293 87.3411 76.156 87.752 74.0625 87.75H15.9375C13.844 87.752 11.7707 87.3411 9.83616 86.5409C7.90164 85.7406 6.14392 84.5668 4.66359 83.0864C3.18327 81.6061 2.00939 79.8484 1.20916 77.9139C0.408923 75.9793 -0.00196606 73.906 7.07279e-06 71.8125V15.9375C-0.00196606 13.844 0.408923 11.7707 1.20916 9.83616C2.00939 7.90164 3.18327 6.14392 4.66359 4.66359C6.14392 3.18327 7.90164 2.00939 9.83616 1.20916C11.7707 0.408923 13.844 -0.00196606 15.9375 7.07279e-06V7.07279e-06Z" fill="#470137"/>
<path d="M8.54995 61.4251V23.0251C8.53893 22.9114 8.57154 22.7978 8.64117 22.7073C8.71081 22.6168 8.81225 22.5561 8.92495 22.5376H8.96245C9.52495 22.5001 10.3875 22.4626 11.475 22.4626C12.5625 22.4626 13.875 22.4251 15.375 22.3876C16.875 22.3501 18.45 22.3501 20.1375 22.3501C24.7125 22.3501 28.5375 23.1751 31.5375 24.8251C34.4247 26.3622 36.7879 28.7254 38.325 31.6126C39.825 34.5001 40.575 37.8001 40.575 41.5501C40.6229 44.1598 40.2299 46.7588 39.4125 49.2376C38.6978 51.3428 37.6049 53.2998 36.1875 55.0126C34.8689 56.5828 33.3126 57.9367 31.575 59.0251C29.8627 60.0776 28.0055 60.8736 26.0625 61.3876C24.177 61.8811 22.2364 62.1331 20.2875 62.1376H16.05C14.55 62.1376 13.125 62.1376 11.85 62.1001C10.575 62.0626 9.56245 62.0626 8.92495 62.0251C8.66245 62.0251 8.54995 61.8001 8.54995 61.4251ZM16.4625 29.7751V54.7876C16.875 54.7876 17.25 54.7876 17.625 54.8251C18 54.8626 18.3375 54.8626 18.675 54.9001C19.0125 54.9376 19.4625 54.9376 19.9125 54.9376C21.6512 54.9686 23.3806 54.6761 25.0125 54.0751C26.5075 53.5471 27.8566 52.6734 28.95 51.5251C30.0726 50.331 30.929 48.9123 31.4625 47.3626C32.0618 45.5479 32.3657 43.6487 32.3625 41.7376C32.3967 39.9375 32.1045 38.146 31.5 36.4501C30.9826 35.0054 30.1326 33.7027 29.0186 32.6474C27.9046 31.592 26.558 30.8136 25.0875 30.3751C23.4857 29.8766 21.8148 29.6361 20.1375 29.6626C19.3875 29.6626 18.75 29.6626 18.225 29.7001C17.7 29.7376 17.1 29.7376 16.4625 29.7751V29.7751Z" fill="#FF61F6"/>
<path d="M74.1748 62.0252H67.1623C67.0808 62.0382 66.9973 62.0314 66.919 62.0052C66.8406 61.9791 66.7698 61.9345 66.7123 61.8752C66.608 61.7417 66.5315 61.5887 66.4873 61.4252C65.7748 58.4252 65.1748 55.7252 64.6873 53.4377C64.1998 51.1502 63.7873 49.1627 63.4873 47.5502C63.1873 45.9377 62.9248 44.5877 62.6998 43.4627C62.4748 42.3377 62.3248 41.4002 62.2123 40.6127H62.1748C61.7998 42.2627 61.4623 43.8752 61.1248 45.4127C60.7873 46.9502 60.4498 48.5252 60.0748 50.1002C59.6998 51.6752 59.2873 53.4002 58.7998 55.2752C58.3123 57.1502 57.8248 59.2127 57.2623 61.4252C57.1873 61.8377 56.9998 62.0252 56.6623 62.0252H49.6498C49.4672 62.0464 49.2827 62.0069 49.1248 61.9127C49.016 61.79 48.9274 61.6507 48.8623 61.5002L41.5498 32.5127C41.4373 32.1752 41.5873 32.0252 41.9998 32.0252H49.0873C49.4248 32.0252 49.6123 32.1377 49.6498 32.4002C50.3998 35.7002 51.0373 38.5502 51.5248 40.9502C52.0123 43.3502 52.4248 45.3752 52.6873 47.0627C52.9498 48.7502 53.2123 50.1377 53.3998 51.1877C53.5873 52.2377 53.7373 53.1377 53.8498 53.8127H53.9623C54.0373 53.2127 54.1123 52.6502 54.2248 52.0502C54.3748 51.3377 54.5623 50.4002 54.7873 49.2377C55.0123 48.0752 55.2748 46.7252 55.6123 45.1502C55.9498 43.5752 56.3248 41.7752 56.7748 39.6752C57.2248 37.5752 57.7873 35.2502 58.4998 32.5877C58.515 32.4165 58.5661 32.2503 58.6498 32.1002C58.6873 32.0252 58.8373 31.9877 59.0623 31.9877H66.4123C66.6373 31.9877 66.7498 32.1377 66.7873 32.4002C67.4248 35.1377 67.9498 37.5377 68.3998 39.6002C68.8498 41.6627 69.1873 43.5002 69.5248 45.1127C69.8623 46.7252 70.0873 48.0752 70.2373 49.2002C70.3873 50.3252 70.5748 51.3002 70.7248 52.0877C70.8491 52.7196 70.9367 53.3582 70.9873 54.0002H71.0998C71.2873 53.2502 71.4373 52.3502 71.5873 51.3377C71.7373 50.3252 71.9248 49.2002 72.1873 47.9252C72.4498 46.6502 72.6748 45.2627 72.9748 43.7252C73.2748 42.1877 73.6123 40.5002 74.0248 38.5877C74.4373 36.6752 74.8873 34.6502 75.4123 32.4377C75.4873 32.1002 75.6373 31.9502 75.8998 31.9502H82.4623C82.7998 31.9502 82.9123 32.1377 82.8373 32.4752L74.7373 61.3877C74.7005 61.5428 74.6228 61.6853 74.5123 61.8002C74.5123 61.9877 74.3623 62.0627 74.1748 62.0252Z" fill="#FF61F6"/>
</g>
<defs>
<clipPath id="clip0_1065_7548">
<rect width="90" height="87.75" fill="white"/>
</clipPath>
</defs>
</svg>
