<svg width="90" height="88" viewBox="0 0 90 88" fill="none" xmlns="http://www.w3.org/2000/svg">
<g clip-path="url(#clip0_1065_7536)">
<path d="M15.9375 7.07279e-06H74.0625C76.156 -0.00196606 78.2293 0.408923 80.1639 1.20916C82.0984 2.00939 83.8561 3.18327 85.3364 4.66359C86.8168 6.14392 87.9906 7.90164 88.7909 9.83616C89.5911 11.7707 90.002 13.844 90 15.9375V71.8125C90.002 73.906 89.5911 75.9793 88.7909 77.9139C87.9906 79.8484 86.8168 81.6061 85.3364 83.0864C83.8561 84.5668 82.0984 85.7406 80.1639 86.5409C78.2293 87.3411 76.156 87.752 74.0625 87.75H15.9375C13.844 87.752 11.7707 87.3411 9.83616 86.5409C7.90164 85.7406 6.14392 84.5668 4.66359 83.0864C3.18327 81.6061 2.00939 79.8484 1.20916 77.9139C0.408923 75.9793 -0.00196606 73.906 7.07279e-06 71.8125V15.9375C-0.00196606 13.844 0.408923 11.7707 1.20916 9.83616C2.00939 7.90164 3.18327 6.14392 4.66359 4.66359C6.14392 3.18327 7.90164 2.00939 9.83616 1.20916C11.7707 0.408923 13.844 -0.00196606 15.9375 7.07279e-06V7.07279e-06Z" fill="#470137"/>
<path d="M47.3246 23.0623L36.0746 41.6248L48.0746 61.3123C48.1535 61.4482 48.1802 61.6082 48.1496 61.7623C48.1121 61.9123 47.9621 61.7998 47.7371 61.8373H39.1496C38.5496 61.8373 38.1371 61.7998 37.8746 61.4248C37.0871 59.8498 36.2621 58.3123 35.4746 56.7373C34.6871 55.1623 33.8246 53.6248 32.9246 52.0123C32.0246 50.3998 31.1246 48.7873 30.2246 47.1373H30.1496C29.3621 48.7498 28.4996 50.3623 27.6371 51.9748C26.7746 53.5873 25.9121 55.1998 25.0871 56.7748C24.2621 58.3498 23.3621 59.9623 22.4996 61.4998C22.3496 61.8748 22.0496 61.9123 21.6371 61.9123H13.3871C13.2371 61.9123 13.1246 61.9873 13.1246 61.7998C13.1078 61.7296 13.1058 61.6567 13.1188 61.5857C13.1317 61.5147 13.1592 61.4471 13.1996 61.3873L24.8621 42.2623L13.4996 23.0248C13.3871 22.8748 13.3496 22.7248 13.4246 22.6498C13.4703 22.5964 13.5283 22.5548 13.5936 22.5287C13.6589 22.5025 13.7296 22.4926 13.7996 22.4998H22.3121C22.4894 22.5037 22.6657 22.5289 22.8371 22.5748C22.9873 22.6557 23.1159 22.7714 23.2121 22.9123C23.9246 24.5248 24.7496 26.1373 25.6121 27.7498C26.4746 29.3623 27.3746 30.9373 28.3121 32.5123C29.2496 34.0873 30.0371 35.6623 30.8246 37.2748H30.8996C31.6871 35.6248 32.5121 34.0123 33.3371 32.4373C34.1621 30.8623 35.0246 29.2873 35.8871 27.7123C36.7496 26.1373 37.5746 24.5248 38.3996 22.9873C38.428 22.8397 38.5077 22.7069 38.6246 22.6123C38.7731 22.5304 38.9458 22.5038 39.1121 22.5373H47.0246C47.0689 22.5274 47.1147 22.5263 47.1595 22.5341C47.2042 22.5419 47.247 22.5585 47.2853 22.5829C47.3237 22.6073 47.3568 22.639 47.3828 22.6762C47.4089 22.7135 47.4273 22.7555 47.4371 22.7998C47.4746 22.8373 47.3996 22.9873 47.3246 23.0623V23.0623Z" fill="#FF61F6"/>
<path d="M64.6493 62.6249C61.8696 62.6705 59.1149 62.094 56.5868 60.9374C54.2347 59.8375 52.2634 58.0621 50.9243 55.8374C49.5368 53.5499 48.8618 50.6999 48.8618 47.2874C48.8238 44.5123 49.5364 41.7784 50.9243 39.3749C52.3474 36.9322 54.4086 34.9228 56.8868 33.5624C59.5118 32.0999 62.6618 31.3874 66.3743 31.3874C66.6373 31.3844 66.9003 31.397 67.1618 31.4249C67.4993 31.4624 67.8743 31.4624 68.3243 31.4999V19.6499C68.3243 19.3874 68.4368 19.2374 68.6993 19.2374H76.3118C76.3958 19.226 76.4811 19.2467 76.5506 19.2954C76.6201 19.344 76.6687 19.4171 76.6868 19.4999V55.2749C76.6868 55.9499 76.7243 56.6999 76.7618 57.5249C76.7993 58.3499 76.8743 59.0624 76.9118 59.6999C76.9198 59.8266 76.8879 59.9525 76.8207 60.0602C76.7534 60.1678 76.6541 60.2516 76.5368 60.2999C74.5726 61.1254 72.5224 61.7292 70.4243 62.0999C68.5184 62.4436 66.5859 62.6193 64.6493 62.6249V62.6249ZM68.3243 55.1249V38.6249C67.9904 38.5443 67.6524 38.4818 67.3118 38.4374C66.8993 38.3999 66.4868 38.3624 66.0743 38.3624C64.6044 38.3459 63.1517 38.6801 61.8368 39.3374C60.5553 39.9759 59.4582 40.9311 58.6493 42.1124C57.8243 43.3124 57.4118 44.9249 57.4118 46.8749C57.3791 48.1911 57.5954 49.5016 58.0493 50.7374C58.412 51.7368 58.9878 52.6454 59.7368 53.3999C60.4598 54.0899 61.3325 54.6032 62.2868 54.8999C63.2913 55.2289 64.3423 55.3935 65.3993 55.3874C65.9618 55.3874 66.4868 55.3499 66.9743 55.3124C67.4325 55.3451 67.8924 55.2812 68.3243 55.1249V55.1249Z" fill="#FF61F6"/>
</g>
<defs>
<clipPath id="clip0_1065_7536">
<rect width="90" height="87.75" fill="white"/>
</clipPath>
</defs>
</svg>
