<svg width="24" height="24" viewBox="0 0 24 24" fill="none" xmlns="http://www.w3.org/2000/svg">
<path d="M10.3701 3.04744C11.9209 4.59825 13.2257 9.18077 11.2037 11.2028C9.18171 13.2248 4.59918 11.9199 3.04838 10.3691C1.49498 8.81831 1.87815 5.92122 3.90016 3.89922C5.92216 1.87721 8.81925 1.49404 10.3701 3.04744Z" fill="#9262F7"/>
<path d="M13.7228 21.0436C12.172 19.4927 10.8671 14.9102 12.8892 12.8882C14.9112 10.8662 19.4937 12.1711 21.0445 13.7219C22.5953 15.2727 22.2147 18.1698 20.1927 20.1918C18.1707 22.2138 15.2736 22.5944 13.7228 21.0436Z" fill="#9262F7"/>
<path d="M21.0393 10.2371C19.5222 11.7542 15.007 12.9918 12.9849 10.9698C10.9629 8.94776 12.2005 4.43255 13.7176 2.9154C15.2348 1.39825 18.1034 1.8099 20.1254 3.8319C22.1474 5.85391 22.5565 8.72252 21.0419 10.2397L21.0393 10.2371Z" fill="#9262F7"/>
<path d="M2.91634 13.7167C4.43349 12.1995 8.9487 10.962 10.9707 12.984C12.9927 15.006 11.7552 19.5212 10.238 21.0384C8.72087 22.5555 5.85226 22.1439 3.83025 20.1219C1.80825 18.0999 1.39919 15.2313 2.91634 13.7167Z" fill="#9262F7"/>
<path d="M11.8406 15.2209C13.5564 15.2209 14.9474 13.8299 14.9474 12.1141C14.9474 10.3983 13.5564 9.00731 11.8406 9.00731C10.1248 9.00731 8.73381 10.3983 8.73381 12.1141C8.73381 13.8299 10.1248 15.2209 11.8406 15.2209Z" fill="#9262F7"/>
</svg>
