<svg width="20" height="20" viewBox="0 0 20 20" fill="none" xmlns="http://www.w3.org/2000/svg">
<path d="M7.25274 10.0006C22.7376 17.0357 17.0345 22.7388 10.0008 7.25255C2.96563 22.7374 -2.73748 17.0343 12.7474 10.0006C-2.73748 2.96544 2.96563 -2.73767 10.0008 12.7472C17.0345 -2.73767 22.7376 2.96544 7.25274 10.0006Z" fill="#5876FF"/>
<path d="M8.05684 8.05774C14.0317 23.9818 5.96627 23.9818 11.9432 8.05774C-3.98088 14.0326 -3.98088 5.96716 11.9421 11.943C5.96729 -3.98101 14.0327 -3.98101 8.05787 11.943C23.9809 5.96716 23.9809 14.0326 8.05684 8.05774Z" fill="#5876FF"/>
<path d="M7.25274 10.0006C22.7376 17.0357 17.0345 22.7388 10.0008 7.25255C2.96563 22.7374 -2.73748 17.0343 12.7474 10.0006C-2.73748 2.96544 2.96563 -2.73767 10.0008 12.7472C17.0345 -2.73767 22.7376 2.96544 7.25274 10.0006Z" fill="#5876FF"/>
</svg>
