<svg width="90" height="90" viewBox="0 0 90 90" fill="none" xmlns="http://www.w3.org/2000/svg">
<path d="M45 90C69.8528 90 90 69.8528 90 45C90 20.1472 69.8528 0 45 0C20.1472 0 0 20.1472 0 45C0 69.8528 20.1472 90 45 90Z" fill="#FFEB3B"/>
<path d="M39.0528 41.2465L37.4318 45.8181H40.6687L39.0528 41.2465ZM39.0528 41.2465L37.4318 45.8181H40.6687L39.0528 41.2465ZM45 21.7789C29.4699 21.7789 16.875 31.638 16.875 43.8085C16.875 51.6732 22.1369 58.5767 30.058 62.4681C26.1256 75.9426 23.8142 76.8221 40.004 65.4852C41.6591 65.7183 43.3286 65.8345 45 65.8329C60.5301 65.8329 73.125 55.9687 73.125 43.8034C73.125 31.638 60.5301 21.7789 45 21.7789V21.7789ZM29.4494 51.4943C26.642 51.4943 28.2989 47.613 27.8284 40.3823C26.8057 40.2085 23.7017 41.0778 23.7017 38.8022C23.7044 38.3827 23.8733 37.9813 24.1714 37.6861C24.4695 37.3909 24.8725 37.2259 25.292 37.2272C31.1932 37.6517 35.192 36.1278 35.192 38.8022C35.192 41.1187 32.2057 40.188 31.0705 40.3823C30.6 47.5874 32.2517 51.4943 29.4494 51.4943V51.4943ZM44.7085 51.2488C42.1875 52.3943 42.1261 49.8119 41.5227 48.692H36.5778C35.9693 49.8374 35.9182 52.4147 33.392 51.2488C31.4949 50.3795 34.5835 45.9664 36.8898 38.8124C37.0374 38.3556 37.326 37.9572 37.7142 37.6747C38.1024 37.3922 38.5702 37.24 39.0503 37.24C39.5304 37.24 39.9982 37.3922 40.3864 37.6747C40.7746 37.9572 41.0632 38.3556 41.2108 38.8124C43.5631 46.1045 46.6159 50.3795 44.7085 51.2488V51.2488ZM47.7051 51.2488C44.9898 51.2488 46.6415 47.5823 46.171 38.8227C46.171 36.6903 49.4847 36.6954 49.4847 38.8227V48.3034C51.0494 48.513 54.4858 47.5312 54.4858 49.7812C54.4653 52.159 50.7733 50.9573 47.7051 51.259V51.2488ZM62.7085 50.7835L58.904 45.7721L58.3415 46.3346V49.8579C58.3415 50.071 58.2993 50.2819 58.2175 50.4787C58.1356 50.6754 58.0157 50.854 57.8646 51.0042C57.7134 51.1543 57.5341 51.2732 57.3369 51.3538C57.1396 51.4344 56.9284 51.4752 56.7153 51.4738C53.8977 51.4738 55.5852 47.4136 55.0943 38.8329C55.097 38.4048 55.269 37.9951 55.5727 37.6933C55.8764 37.3915 56.2872 37.2221 56.7153 37.2221C59.1648 37.2221 58.1062 40.6892 58.3364 42.2999C62.9386 37.9073 62.821 37.442 63.767 37.442C65.071 37.442 65.8687 39.063 64.9994 39.9221L61.3023 43.5937L65.296 48.8505C66.6 50.5534 63.9972 52.5017 62.7085 50.7937V50.7835ZM37.4318 45.8181H40.6687L39.0528 41.2465L37.4318 45.8181ZM39.0528 41.2465L37.4318 45.8181H40.6687L39.0528 41.2465ZM39.0528 41.2465L37.4318 45.8181H40.6687L39.0528 41.2465Z" fill="#3E2723"/>
</svg>
