<svg width="90" height="90" viewBox="0 0 90 90" fill="none" xmlns="http://www.w3.org/2000/svg">
<path d="M0 45C0 20.1472 20.1472 0 45 0V0C69.8528 0 90 20.1472 90 45V45C90 69.8528 69.8528 90 45 90V90C20.1472 90 0 69.8528 0 45V45Z" fill="#EC609C"/>
<path fill-rule="evenodd" clip-rule="evenodd" d="M48.6447 30.4197C51.6644 27.4 56.5603 27.4 59.58 30.4197C62.5997 33.4394 62.5997 38.3353 59.58 41.3551L55.9349 45.0002C54.9284 46.0067 54.9284 47.6387 55.9349 48.6453C56.9415 49.6518 58.5735 49.6518 59.58 48.6453L63.2251 45.0002C68.258 39.9673 68.258 31.8075 63.2251 26.7746C58.1923 21.7418 50.0325 21.7418 44.9996 26.7746L41.3545 30.4197C40.3479 31.4263 40.3479 33.0583 41.3545 34.0648C42.3611 35.0714 43.993 35.0714 44.9996 34.0648L48.6447 30.4197ZM54.1123 35.8881C55.1189 36.8947 55.1189 38.5267 54.1123 39.5332L39.5319 54.1137C38.5253 55.1202 36.8934 55.1202 35.8868 54.1137C34.8802 53.1071 34.8802 51.4751 35.8868 50.4685L50.4672 35.8881C51.4738 34.8816 53.1057 34.8816 54.1123 35.8881ZM34.0648 41.3552C35.0714 42.3618 35.0714 43.9937 34.0648 45.0003L30.4197 48.6454C27.4 51.6651 27.4 56.561 30.4197 59.5807C33.4394 62.6004 38.3353 62.6004 41.3551 59.5807L45.0002 55.9356C46.0067 54.929 47.6387 54.929 48.6453 55.9356C49.6518 56.9422 49.6518 58.5741 48.6453 59.5807L45.0002 63.2258C39.9673 68.2587 31.8075 68.2587 26.7746 63.2258C21.7418 58.193 21.7418 50.0331 26.7746 45.0003L30.4197 41.3552C31.4263 40.3486 33.0583 40.3486 34.0648 41.3552Z" fill="white"/>
</svg>
