<svg width="36" height="36" viewBox="0 0 36 36" fill="none" xmlns="http://www.w3.org/2000/svg">
<path d="M0 18C0 8.05888 8.05888 0 18 0C27.9411 0 36 8.05888 36 18C36 27.9411 27.9411 36 18 36C8.05888 36 0 27.9411 0 18Z" fill="#EDF1F7"/>
<g clip-path="url(#clip0_377_1273)">
<path d="M13.7355 25.0718C13.7355 25.0718 13.8074 25.0718 13.9272 25.0629C14.526 25.0269 16.4451 24.8503 18.4302 23.982C19.4751 23.5239 22.4481 21.7994 22.4481 19.479C22.4481 18.6018 21.9122 18.0988 21.002 18.0988C19.6158 18.0988 17.9391 19.2156 16.0679 21.1617C16.02 21.2215 15.9331 21.1796 16.1727 20.7874C16.6397 20.0269 17.7026 18.0838 20.026 15.7964C21.3822 14.4611 20.6936 13.9491 20.6936 13.9491C20.6936 13.9491 22.0649 13.3203 23.0978 11.976C23.7146 11.1706 24.499 9.5958 24.1577 9.16466C23.8733 8.80837 23.2954 8.98801 21.999 10.1317C20.3882 11.5509 17.9451 15.6886 16.6188 18.1677C16.2924 18.7814 14.3852 22.0778 13.029 24.4162C12.7894 24.3323 12.529 24.2066 12.2655 24.018L12.1008 24.3084C12.2385 24.4521 12.493 24.6407 12.8134 24.7934C12.1577 25.9251 11.6727 26.7575 11.6427 26.8084C11.5529 26.9641 11.6367 27.0329 11.7355 26.988C11.8613 26.9341 11.9811 26.8802 12.0918 26.8323C13.005 26.4371 13.1966 26.2724 13.2625 25.8922C13.3822 25.1976 13.7355 25.0748 13.7385 25.0748L13.7355 25.0718ZM23.3194 9.7934C22.7296 11.7215 21.2805 12.9581 20.1697 13.7485C19.8763 13.9581 20.1667 14.1168 20.1727 14.4132C20.1817 14.7844 19.514 15.2425 18.496 16.3563C20.4391 12.5958 23.3194 9.7934 23.3194 9.7934ZM19.5589 19.0898L19.6158 19.0599C19.9571 18.8862 20.2864 18.7904 20.5409 18.7904C20.7445 18.7904 20.9032 18.8503 21.008 18.9671C21.1248 19.0988 21.1697 19.3024 21.1397 19.5659C20.9451 21.2006 19.3254 22.7455 17.9002 23.488C16.2535 24.3473 14.4212 24.5359 14.0529 24.5659C14.0319 24.5659 14.011 24.5659 13.987 24.5659C14.017 24.515 16.4331 20.6227 19.5619 19.0838L19.5589 19.0898Z" fill="#727F96"/>
<path d="M13.3912 26.7245L13.2295 26.9999H24.2385L24.4002 26.7245H13.3912Z" fill="#727F96"/>
</g>
<defs>
<clipPath id="clip0_377_1273">
<rect width="12.7994" height="18" fill="white" transform="translate(11.6006 9)"/>
</clipPath>
</defs>
</svg>
