<svg width="36" height="36" viewBox="0 0 36 36" fill="none" xmlns="http://www.w3.org/2000/svg">
<path d="M0 18C0 8.05888 8.05888 0 18 0C27.9411 0 36 8.05888 36 18C36 27.9411 27.9411 36 18 36C8.05888 36 0 27.9411 0 18Z" fill="#EDF1F7"/>
<path fill-rule="evenodd" clip-rule="evenodd" d="M9.99999 10C8.89543 10 8 10.8954 8 12V23.9999C8 25.1045 8.89543 25.9999 9.99999 25.9999H25.9999C27.1045 25.9999 27.9999 25.1045 27.9999 23.9999V12.0132C28.0001 12.002 28 11.9908 27.9998 11.9795C27.9888 10.8844 27.0977 10 25.9999 10H9.99999ZM25.4001 12L10.6579 12L18.2396 17.733L25.4001 12ZM9.99999 14.0099V23.9999H25.9999V14.0818L18.8822 19.7806C18.5249 20.0667 18.0191 20.0737 17.654 19.7976L9.99999 14.0099Z" fill="#727F96"/>
</svg>
